<?xml version="1.0" encoding="UTF-8"?>
<svg xmlns="http://www.w3.org/2000/svg" viewBox="0 0 120 120">
  <defs>
    <style>
      .cls-1 {
        fill: #131417;
      }

      .cls-1, .cls-2, .cls-3, .cls-4, .cls-5, .cls-6 {
        stroke-width: 0px;
      }

      .cls-7 {
        isolation: isolate;
      }

      .cls-3 {
        fill: #fff;
      }

      .cls-4 {
        fill: #fe0303;
      }

      .cls-4, .cls-6 {
        fill-rule: evenodd;
      }

      .cls-5, .cls-6 {
        fill: #28292d;
      }

      .cls-8 {
        mix-blend-mode: multiply;
      }
    </style>
  </defs>
  <g class="cls-7">
    <g id="Layer_2" data-name="Layer 2">
      <g id="Layer_1-2" data-name="Layer 1">
        <g>
          <g>
            <path class="cls-6" d="m25.52,80.39c-3.53-4.19-6.33-8.38-9.83-12.57,1.75,5.24,5.95,9.43,9.74,13.01,1.22.97,1.08.64.09-.44Z"/>
            <path class="cls-6" d="m19.08,77.01c-.59-.81-1.64-1.86-2.34-2.56.7,2.1,3.5,3.49,4.2,5.59,0,0,0-.7-.08-.51.29.1-.42-.8-1.78-2.52Z"/>
            <path class="cls-6" d="m65.77,92.88c1.69.09,2.39-1.31,3.44-1.66-1.4.7-2.45,1.05-3.45,1.67h.01Z"/>
            <path class="cls-6" d="m32.68,92.13q-.55-.22-.9-.57c.35.35,1.05.35,1.29.85.23.08.09-.03-.39-.28Z"/>
            <path class="cls-6" d="m14.26,55.1c.03.15.03.84.12.65-.01-.11-.08-.45-.12-.65Z"/>
            <path class="cls-6" d="m29.64,85.16c1.79.47,2.49,1.87,4.24,2.22-2.1-1.4-3.5-2.79-5.95-3.84,4.2,4.19.35.35.07.28.37.36.86.78,1.63,1.34Z"/>
            <path class="cls-6" d="m23.63,81.19c-3.04-4.3-6.54-9.18-10.04-13.38,1.4,2.1,2.45,4.54,3.85,6.64l-.35-.35c.7,2.1,2.8,3.49,4.02,4.9,2.13,2.18,2.26,2.27,2.53,2.18Z"/>
            <path class="cls-6" d="m58.27,105.12c1.14.06,2.54-.63,3.94-.63-4.9-.7-9.8.7-14.69.7h.7-1.4c.7,0,1.4,0,2.11.15,2.02.21,7.28.16,9.34-.21Z"/>
            <path class="cls-6" d="m61.08,11.64c-.26-.04-.61.31-.61.31,5.25-1.75,10.5-1.4,15.74-2.44-2.45.35-4.9,0-7.54.41-3.18.37-6.11,1.13-7.59,1.73Z"/>
            <path class="cls-6" d="m35.96,22.28c-2.78,4.33-6.28,8.52-6.28,14.11,2.45-5.24,4.9-10.48,8.05-15.72q-.35.35-.7.7c.35-.35.7-.7,1.05-1.05-.7.7-1.05,1.05-1.83,1.9-.5.56-.38.29-.28.06Z"/>
            <path class="cls-6" d="m81.88,3.98c-2.17-.76-4.62-.41-6.72-.41,2.8.7,5.95.35,8.75,1.05,0,0-.35-.35-.38-.37-.33-.08-.64-.14-1.64-.26Z"/>
            <path class="cls-6" d="m112.32,58.94c-.42,2.24.63,4.69.28,7.13,1.05-2.44-.35-4.54-.25-7.05,0-.05-.02-.06-.03-.08Z"/>
            <path class="cls-6" d="m19.5,50.8c.39,1.65.39,3.75,1.44,5.5-.7-2.1-1.05-4.54-1.43-7.25-.13-.57-.16.23-.01,1.75Z"/>
            <path class="cls-6" d="m21.4,75.42c.93,1.13,1.63,1.82,2.68,2.87-1.4-1.4-2.8-3.49-3.85-5.24-3.85-3.84-.35.35-.34.23.34.58.82,1.3,1.51,2.14Z"/>
            <path class="cls-6" d="m29.45,71.62c.93,1.09,1.63,2.49,3.38,2.84-1.75-1.75-3.5-3.49-4.9-5.59,0,0,0,.7.08.88.4.7.97,1.4,1.43,1.87Z"/>
            <path class="cls-6" d="m48.26,2.53c-2.84,1.38-4.59,3.12-7.04,4.87,2.8-2.79,7-3.49,9.8-6.29-.35.35-.7,0-1.09.59-.71.31-1.17.54-1.67.83Z"/>
            <path class="cls-6" d="m95.81,73.97c.69-1.61-.01-3,.69-4.4-.7,1.4-.7,2.79-.84,4.51.03.07-.05.61.15-.11Z"/>
            <path class="cls-6" d="m53.79,97.9c1.43.31,3.53-.39,4.92-.39-1.75-.35-3.85-.35-5.7.28-.46.07.04.11.77.11Z"/>
            <path class="cls-4" d="m62.69.26c-6.43,1.91-12.72,4-17.97,7.84,1.05-1.05,2.1-2.1,3.5-2.79-3.5,1.4-6.3,4.19-9.1,6.29l.35-.35c-2.1,2.1-4.2,4.19-5.95,6.64-.35-1.05.7-1.4,1.05-1.75-2.1,2.1-3.15,4.54-4.55,6.64.35-.35.7-1.4,1.05-1.75-2.8,6.29-5.95,12.22-6.65,19.21l.35-.35c-1.4,6.98,0,14.67,2.8,20.95-2.45-2.44-3.15-5.24-4.2-8.38-.35,1.05,1.4,2.1.35,3.14,0-.7-.35-1.75-.7-2.1.7,2.79,1.75,5.24,2.45,8.03q-.35-.35-.7-.7c2.1,4.19,4.55,8.03,8.4,11.18,0-.7-.35-1.05-.7-1.4,3.5,2.79,7,5.59,11.19,6.98l-.35-.35c1.4.7,2.45,1.05,3.85,1.75-2.1-.7-4.2-1.4-6.3-2.1.35,1.05,1.75.35,2.45,1.05-3.15.35-5.95-2.44-8.75-3.14,1.75,1.75,3.5,2.79,5.25,3.84-2.1-1.4-4.9-2.1-6.3-4.19.7.7,1.05,1.05,1.75,1.75-8.4-2.1-10.85-10.83-15.39-16.76,1.75,12.22,12.59,20.95,23.79,25.14-1.05-.35-2.45-.35-3.5-.7,1.05.35,2.1.7,3.15,1.05-4.2,0-7.7-3.49-11.54-4.54,3.15,3.14,6.65,6.64,10.85,5.24,2.45-1.05,0,0,0,0,5.95,2.44,12.94,1.75,19.24,1.75-5.25,2.44-10.5,1.4-15.74,1.75,5.6,2.1,11.19.7,16.44-1.05-3.85,2.44-9.1,3.49-13.64,2.44h.7c-7.35-2.44-14.34-4.54-20.99-8.38,1.75,3.84,6.3,4.19,8.75,6.64-2.1-.7-3.5-2.1-5.25-3.14,2.8,2.1,5.95,3.84,9.8,4.19h-.7c5.95.35,11.54,1.75,17.49,1.4-.35.35-.7.7-1.4.7l.35.35c-11.54,1.05-22.74-2.44-31.84-9.43,11.19,13.97,33.58,14.67,47.93,5.24-.7,2.1-3.15,2.44-4.55,3.84.35-.35,1.4-.7,1.75-1.05-5.25,3.84-11.54,4.54-18.19,4.89,10.15,3.14,17.84-4.54,26.24-8.03l-.35.35c.7-.7,1.4-.7,2.1-1.4q-.35.35-.7.7c1.05-1.05,3.15-1.75,3.85-3.14,0,.7-2.1.7-.7,1.4.35-.35.7-.7.7-1.4-1.05,2.44-2.8,3.49-4.2,5.59,2.8-1.4,4.9-3.49,6.3-6.29-1.05,3.14-3.15,5.24-5.25,7.33,2.1-2.1,4.2-4.19,6.3-6.29-1.05,1.05-1.05,3.14-2.8,4.19,3.15-3.14,5.95-6.64,7.35-10.83-.35,3.84-2.8,6.29-4.55,9.43,2.1-1.4,2.8-4.19,4.2-6.29q-.35.35-.7.7c.35-1.75,1.4-3.49,2.1-4.89v1.4c1.4-3.49,1.4-6.98,2.8-10.48,0,.7,0,1.4-.35,1.75.7,0,0-1.4.7-1.4v1.4c.7-1.4,0-2.79.7-4.19-.7.7,0,1.4,0,2.1.7-.7-.7-1.4.35-1.75,0,1.4,0,2.79-.35,3.84,1.05-1.05.7-2.1.35-3.14,1.05,3.14-.7,5.59-.35,8.73.35-3.84,1.75-8.03,1.4-11.87,0,.7-.35,1.05.35,1.75l.35-.35v1.4s-1.4-2.79.35-.35c0,.7.35,1.75.7,2.1,0-1.4-.35-2.44-.35-3.84.7,2.1,1.4,4.89,1.05,7.33,0-7.68-1.05-15.72-5.25-22,.35.35,0,.7,0,.7-.7-.7-2.1-1.4-2.45-2.44-.35-3.84.7,0,.7,0-2.45-3.14-4.2-6.29-7.7-8.38,4.9,2.1,7.35,6.64,10.5,10.48-1.4-5.59-6.65-8.03-9.8-11.87q.35.35.7.7c0-.7-2.1-.7-1.05-1.75,1.05-.35,1.4,1.4,2.45,1.75.7,0,.35-.35,0-.7,1.75,1.05,3.85,1.75,5.25,3.84,0-1.4-1.4-2.1-2.1-2.79,2.1,1.4,3.5,2.79,4.55,5.24-.7-.7-1.05-1.05-1.4-2.1.7,2.1,2.1,3.49,2.8,5.59-.35-.35-.7-.7-1.05-1.05,1.4,3.49,2.8,6.29,4.55,9.43,0-.7,0-1.4-.35-1.75,1.4,4.19,2.45,8.03,2.45,12.22.35-1.05.7-2.1,0-3.49.35,1.05.35,1.75.7,2.79.7-1.4-1.4-2.1-.35-3.14,1.05,1.75.7,3.49.7,4.89v-3.49c.35,1.75.35,3.14,0,4.89.7-.7,0-1.4,0-2.1,1.05,3.14,0,6.29-.35,9.43,1.05-3.84.35-8.03,1.05-12.22.35,1.05.7,2.1.35,3.14.35-2.44-1.05-4.54-.7-6.98l.35.35c-.7-1.4-.7-3.49-1.4-4.89.35.35,0,.7.35,1.05-.35-1.75-1.05-3.14-1.4-4.89v.7c-1.75-3.14-3.85-6.64-6.3-9.78q.35.35.7.7c-3.5-4.19-7.7-6.98-12.24-10.13,2.1,1.4,4.9,2.1,7,3.49-.35-.35-1.05-1.05-1.4-1.4,1.05-.35,1.4.7,1.75,1.05-1.05-1.05-3.15-1.05-3.5-2.79h.7c-3.15-1.05-6.3-3.49-10.15-3.14l.35.35c-3.85-.35-8.05-.35-11.89,0,1.75-.35,3.5-.7,4.9-.7-.7-.7-1.4,0-2.1,0,2.8-1.4,5.6-.7,8.4-.7-1.05-1.05-2.8-.7-4.2-.7,2.1,0,3.85-.35,5.95.35-.35-.35-.7-.7-1.05-.35,6.65-1.05,10.85,4.54,16.79,5.59-5.6-6.29-13.64-8.03-21.69-9.08,1.05.35,1.75.35,2.8,0-.7,0-1.4,0-2.45-.35,3.15.35,6.3.7,9.45,1.05-2.45-1.75-6.3-2.79-9.1-1.4h.7c-4.55-1.05-8.75,1.05-13.64,1.05,3.15-1.75,7.35-1.05,10.5-3.49-3.85.35-7.35,1.75-10.85,2.44,2.8-1.4,5.95-1.75,9.1-2.79l-.35.35c4.55-.35,8.4,1.4,12.94,1.05l-.35-.35c.7.7,1.75,1.05,2.8.7-1.75-1.75-4.9-1.4-7-2.1,1.4,0,2.45.35,3.85.35-2.45-.35-4.9-.7-7-.7h.7c-4.2.7-8.4.7-12.59,1.4,7.35-3.84,15.39-1.4,22.74-.35-10.15-6.64-25.19-2.79-34.28,4.19-1.05-2.44,2.1-1.4,2.45-2.44-.35.35-1.05.35-1.4.7,3.5-2.79,7.35-3.84,11.19-5.59-3.15.35-5.95,1.05-8.75,2.44.35-.35.7,0,1.05-.35-3.85,2.44-7,4.89-10.15,8.03v-.7c-.7.7-1.05,1.05-1.75,1.75l.35-.35c-1.05,1.05-1.75,1.75-2.45,3.14-.7-.7,0-.7.35-1.05-.35.35-.7.7-1.05,1.05,3.85-5.24,8.75-9.43,13.99-13.27-5.6,1.4-10.15,5.24-12.94,10.13h.7c-1.75,1.75-3.15,3.84-4.2,6.29,0-3.49,3.15-5.94,4.2-9.08-3.15,2.44-3.85,5.94-5.6,9.08,0,.7.7-.7,0-.7-1.4.7-1.75,2.44-1.75,3.84-1.05-1.05.35-1.75,0-2.79-2.8,4.19-2.45,9.43-2.45,14.32-.7-.7-.7-1.4-1.05-2.44-.7.7,0,1.4-.35,2.44l-.35-.35c0,4.89,2.8,9.08,4.55,13.62-2.8-4.89-5.95-10.13-4.9-16.06,0,.7,0,1.4.35,1.75-.7-4.89,1.05-10.13,2.8-14.67l.35.35c4.2-7.68,9.8-14.67,17.49-19.56-5.25.35-7.35,4.54-10.85,7.33.35-.35.7-.7,1.05-1.05-1.75,1.05-2.8,3.49-5.25,3.14,4.9-10.48,17.49-14.67,27.99-18.16l-.35.35c1.05-.35,1.75-1.05,2.8-.7h-1.4c.35-.35,1.05-.35,1.4-.7h-1.4c1.4,0,2.45-.35,3.5-.7-1.05.35-2.1.7-3.15.35.7-.7,1.05-.35,1.75-.35-2.45-.35-4.55.35-6.65,1.05,2.8-.7,5.6-2.79,8.75-2.44-11.19,1.4-23.44,5.24-30.44,15.02q.35-.35.7-.7c-.35,1.75-2.1,2.1-2.8,3.49.35-.35.7-.7,1.05-.35-.7.7-1.05,1.05-1.75,1.75v-.7c-1.75,3.14-3.5,6.29-4.9,9.78.35-.35,0-.7.35-1.05-1.05,2.44-1.4,4.89-2.8,6.98,0-.7-.35-1.75.35-2.44-.7,2.1-.7,4.19-1.05,6.64,0-.7-.35-1.05-.7-1.4-.35.35,0,.7-.35,1.05.7-1.4,0-2.79.35-3.84v2.1-2.79c-2.45,3.84,0,8.38-2.45,12.22-.7-1.4-.35-2.44-.35-3.84v.7c-1.4-2.79-.7-5.59-.35-8.03-1.4,2.1-.7,4.89-1.4,6.98-.35-3.84.7-7.68,1.75-11.52,0,1.4-.35,2.44-.7,3.49,1.75-3.84,3.15-8.03,5.25-11.52-.35.35-.35,1.05-.35,1.75,3.15-4.54,6.3-9.08,10.15-13.62-.7.7-1.05,1.05-1.75,1.75,3.5-5.59,9.45-8.03,15.04-10.83-2.1.7-4.2,2.1-6.3,2.79,1.05-1.05,2.8-1.4,3.85-2.44-2.1.7-3.15,2.44-4.9,2.79,1.05-1.75,3.5-2.1,4.9-3.49-1.4.7-3.15,1.75-4.55,2.44,2.1-1.4,4.55-1.75,6.3-3.49-.7.7-2.1.7-2.8,1.4,4.2-2.1,8.4-4.19,13.29-4.96-.5.08-.9.17-1.27.26Zm-20.47,78.88c-.3-.49-1.7.91-1.35-.84.35.35.7.7,1.39.65.26.2.18.23-.04.19Zm28.82-48.09c1.32.45,2.71-.25,3.76.8-1.4-.7-3.15.35-4.64-.54.31-.09.59-.18.87-.26Zm1.49-2.12c.52-.22.87-.57,1.22-.22,0,.7-1.4,0-1.41.37-.12-.06-.02-.11.18-.15Zm-4.49-.46c-.24-.11.11.24,0,0,0,0,0,0,0,0Zm5.11,4.63c.6.51.95.16,1.64.16,0,0-.7,0-.94-.03-.27-.03-.68-.1-.7-.13Zm23.62,26.87c.06-.52.06-1.21-.29-2.26.35,1.75,2.1,3.49.7,5.59-.35-1.05,0-2.1-.41-3.33,0,0,0,0,0,0Zm.3,2.86c.11-.24-.24-.58-.06-.56.02.19.04.39.06.56ZM51.51,27.09c.21-.13-.14.22-.03.02,0,0,.02-.01.03-.02Zm-12.04,10.28c.36-.63.01-.98.36-1.33.35,1.05-.35,1.75-.7,2.79.35-.35.35-1.05.34-1.47,0,0,0,0,0,0Zm48.66,42.12q.33-.49.67-.84c-.7,1.4-1.4,2.79-2.45,3.84.35-.35.35-1.05.96-1.44.34-.81.62-1.38.81-1.56Zm-53.99-13.2c.79.49.79,1.88,1.83,2.23,0,0-.35-.35-.23-.14-.78-.87-1.27-1.52-1.61-2.09Zm-6.36-15.93c-.2,0-.2-.7-.14-.83.06.42.11.64.14.83Zm9.34,21.69c1.31,1.71,3.76,2.06,4.81,3.81-2.45-1.05-4.55-3.14-6.09-4.75.28.16.79.57,1.28.94Zm-10.67-24.07c-.61-.06.44.29-.04.82-.01-.52-.03-1.35.04-.82Zm-.89-7.08c.27.03-.08-.32.02-.13-.01.1-.02.12-.02.13Z"/>
            <path class="cls-6" d="m63.41,2.03c-1.54,1.54-4.34.14-5.74,1.54.35-.35.7,0,1.05-.35-1.75.35-2.8,1.4-4.2,1.4,4.9-1.4,9.8-2.79,14.69-3.49-.35.35-.7,0-1.09.18-1.56.15-3.26.41-4.71.73Z"/>
            <path class="cls-6" d="m24.59,23.83c1.24-1.76,2.29-3.51,2.64-5.26-1.4,2.1-1.75,4.54-3.47,6.59-.16.5.13-.02.83-1.34Z"/>
            <path class="cls-6" d="m32.43,95.17c-3.8-1.86-6.95-4.31-10.45-6.4,1.75,1.05,3.15,1.75,4.55,3.14q-.35-.35-.7-.7c1.05,1.05,2.1,2.79,3.8,2.67,1.49.77,2.34,1.13,2.8,1.28Z"/>
            <path class="cls-6" d="m19.03,61.19c-1.25-4.55-2.99-9.09-2.99-13.98-.7,5.59,2.1,10.48,3.4,15.26,0-.14-.2-.75-.4-1.29Z"/>
            <path class="cls-6" d="m45.95,22.46c-.18-.04-.18.66-.18.66,3.5-2.79,7.35-5.24,11.19-7.68-3.15,1.05-5.95,3.14-8.96,4.92-1.47,1.27-2.08,1.95-2.06,2.1Z"/>
            <path class="cls-6" d="m56.54,98.66c-1.68-.81-3.43.94-5.17-.11,1.75,1.05,3.5,0,5.15.15.3-.05.05-.03.02-.04Z"/>
            <path class="cls-6" d="m94.79,14.59c-.39-.2-1.09-.2-1.44-.55,1.05,1.75,3.15,1.05,4.2,2.1-.35-.35-.7-.7-1.03-.73-.33-.2-.99-.53-1.73-.82Z"/>
            <path class="cls-6" d="m39.42,8.16c-2.05.29-2.4,2.73-3.8,3.43v-.7c-4.2,4.89-9.1,9.78-10.85,16.41,2.8-6.98,7.7-12.57,13.01-17.59.98-.88,1.49-1.36,1.63-1.55Z"/>
            <path class="cls-6" d="m93.47,5.87c-2.57-.57-5.02-1.61-7.46-1.96,4.2.7,7.7,2.1,11.64,3.68-.98-.5-2.63-1.17-4.18-1.72Z"/>
            <path class="cls-6" d="m26.55,84.92c-1.07-1.03-2.12-2.78-3.87-3.13,1.05,1.05,2.1,2.79,3.76,3.19.34.21.32.16.1-.07Z"/>
            <path class="cls-6" d="m32.06,82.4c.07,1.83,2.87,1.13,3.57,2.53-.7-.7-1.75-1.75-2.86-2.13-.37-.25-.65-.41-.71-.4Z"/>
            <path class="cls-6" d="m26.84,74.98c-2.76-2.27-3.46-5.77-5.9-8.21,1.05,3.14,3.5,5.59,5.78,8.19.14.14.49.46.12.02Zm-2.21-2.65c-.54-.33-.54-1.02-.89-1.37.35.35.7,1.4,1.13,1.67-.07-.08-.16-.21-.23-.3Z"/>
            <path class="cls-6" d="m93.29,77.29c.06,1.01-1.34,1.01-.99,2.06.35-.35.35-1.05.67-1.08.15-.36.31-.8.32-.97Z"/>
            <path class="cls-6" d="m56.31,101.78c-.04.26.31-.09.31-.09-2.45.35-5.25.35-8.05.35.7,0,1.05.35,1.78.05,2.04,0,4.02-.11,5.96-.31Z"/>
            <path class="cls-6" d="m69.84,97.94c-1.33.27-2.03.96-3.43.96.7.7,1.4,0,1.98-.27.82-.35,1.07-.5,1.44-.7Z"/>
            <path class="cls-6" d="m4.94,59.07c-.1.02.25.37.25.37-1.05-3.14-1.4-6.29-2.45-9.43.35,1.05.35,1.75.55,2.63.5,2.42.93,3.89,1.65,6.44Z"/>
            <path class="cls-6" d="m36.25,81.76c-1.3-.74-2.44-1.44-3.89-2.48,2.09,1.65,3.8,2.66,3.89,2.48Z"/>
            <path class="cls-6" d="m84.75,85.36s-.05.06-.08.09c-.02.03.03-.02.08-.09Z"/>
            <path class="cls-6" d="m2.09,69.55c-1.45-1.38-1.1-3.83-2.09-5.64.63,2.01,1.5,4.34,2.09,5.64Z"/>
            <path class="cls-6" d="m86.45,91.6c.96-1.08,2.36-2.48,3.06-3.88-.7,1.4-1.4,2.1-2.57,3.28-.26.29-.53.61-.49.59Z"/>
            <path class="cls-6" d="m102.53,63.29c.27,0-.43,0-.43,0,.35.35.7.7.49,1.49,0-.51-.01-.97-.06-1.48Z"/>
            <path class="cls-6" d="m22.18,54.74c.29.89.58,1.72.98,2.83-.59-2.11-.75-2.61-.98-2.83Z"/>
            <path class="cls-6" d="m108.35,59.87c.4.27.05.62.4.97-.35-.35-.35-1.05-.44-1.62-.02.04-.02.27.05.65Z"/>
            <path class="cls-6" d="m18.45,44.87c-.31-1.15-.31-2.55.04-3.59,0,1.4,0,2.79-.05,4.37,0-.26,0-.57,0-.77Z"/>
            <path class="cls-6" d="m76.85,96.47c-.64.34-.99.68-1.69.68.35-.35.7,0,1.2-.35.3-.18.39-.25.49-.33Z"/>
            <path class="cls-6" d="m50.7,10.24c-.03.31.32-.04.32-.04-1.05.35-1.4.7-2.1,1.4,0,0,.35-.35.24-.37.51-.34,1.05-.68,1.54-.99Z"/>
            <path class="cls-6" d="m92.56,87.79c-.26-.06-3.76,4.13.07.14.25-.48.3-.64-.07-.14Z"/>
            <path class="cls-6" d="m57.19,12.8c-.23.54-.93.54-1.28.89.7-.7,1.05-1.05,2.19-1.21.11-.07-.49.15-.91.32Z"/>
            <path class="cls-6" d="m20.66,70.49c.72,1.13,1.22,1.83,1.86,2.63-.68-.98-1.2-1.75-1.86-2.63Z"/>
            <path class="cls-6" d="m25.98,91.22c.64.36,1.28.7,1.91,1.03-.95-.54-1.93-1.12-1.91-1.03Z"/>
            <path class="cls-6" d="m21.99,71.96c0-.65-.35-.99-.82-1.16.27.5.5.76.82,1.16Z"/>
            <path class="cls-6" d="m25.52,55.3c-1.43-.06-.03.64-.04.35.16.45.16.31.04-.35Z"/>
            <path class="cls-6" d="m89.56,40.7c-.05.23,2.4,1.97.34.13-.45-.36-.19-.08-.34-.13Z"/>
            <path class="cls-6" d="m57.27,94.71c.57-.04,1.17-.11,1.57-.26-.53.1-1.05.18-1.57.26Z"/>
            <path class="cls-6" d="m34.4,83.17c4.37,4.2.52.36.38.35-.19-.15,0-.09-.38-.35Z"/>
            <path class="cls-6" d="m117.59,65.56c.25.17.6.52-.1,1.21.35-.35,0-.7.14-1.07-.02-.18-.04-.41-.04-.15Z"/>
            <path class="cls-6" d="m15.13,82.55c-.18-.18-.77-.85.04.14.29.29-.03-.1-.04-.14Z"/>
            <path class="cls-6" d="m19.3,63.69c.28.64.46,1.04.71,1.58-.21-.57-.4-.95-.71-1.58Z"/>
            <path class="cls-6" d="m31.93,31.76c.14-.38.21-.57.06-.3-.14.38-.22.61-.06.3Z"/>
            <path class="cls-6" d="m42.43,28.33c-.23.25-.38.43-.68.86.14-.13.3-.35.68-.86Z"/>
            <path class="cls-6" d="m21.99,55.85c-.35-3.75-1.4-7.59-1.4-11.08-.7,4.19-.35,8.73,1.61,12.05,0-.14-.06-.46-.2-.97Z"/>
            <path class="cls-6" d="m70.4,107.34c-.14-.41-.49-.06-.66.22.39-.12.6-.19.66-.22Z"/>
            <path class="cls-6" d="m63.35,5.06c-.4.1-.7.18-.66.19.19-.06.91-.22.66-.19Z"/>
            <path class="cls-6" d="m47.28,27.41c-.11-.1.24-.45.22-.21-.06.05-.14.14-.22.21Z"/>
            <path class="cls-6" d="m63.75,100.27c-.14.03,2.31,1.77.29-.09-.18.04-.27.08-.29.09Z"/>
            <path class="cls-6" d="m31.42,85.25c0-.32-.34.03-.25-.16.07.05.19.12.25.16Z"/>
            <path class="cls-6" d="m88.34,23.86c3.26,1.71,6.06,3.1,9.2,4.85-2.8-2.79-5.95-3.84-9.41-5.29-.93-.25-.71-.04.2.44Z"/>
            <path class="cls-6" d="m91.76,23.15c.54.31,1.59.66,1.94,1.01-1.05-1.75-2.45-1.75-3.87-2.09-.07.1.65.47,1.93,1.08Z"/>
            <path class="cls-6" d="m107.43,36.49c3.76,4.44,5.86,10.03,8.31,15.27-1.4-5.59-4.2-10.48-7.98-14.99-.23-.25-.48-.52-.33-.28Z"/>
            <path class="cls-6" d="m119.71,75.54c-.13,1.01.22,2.05-.48,2.75,1.05-1.05.7-2.1.72-3.76.03-.73-.08-.09-.25,1.01Z"/>
            <path class="cls-6" d="m57.26,22.55c-1-.13-1,1.27-2.05,1.62.35-1.05,2.1-.7,2.45-1.75,0,0-.35.35-.4.13h0Z"/>
            <path class="cls-6" d="m114.02,90.28c-.03.94-1.78,1.28-.73,2.33-.35-1.05.7-2.1,1.21-3.19.2-.62-.13.1-.48.85Z"/>
            <path class="cls-6" d="m76.2,16.71c2.11,1.87-.34.13-.42-.08-.1.03.05.05.42.08Z"/>
            <path class="cls-6" d="m111.7,56.18c.54-.24.19-.59-.16-.85,0,.15.07.47.16.85Z"/>
            <path class="cls-6" d="m102.5,36.29c-.05.1-.4-.25-.28-.33.04.06.19.23.28.33Z"/>
            <path class="cls-6" d="m116.92,74.52c.04-.22.08-.43.11-.64-.03.08-.06.27-.11.64Z"/>
            <path class="cls-6" d="m84.21,21.55c-.65-.52-1.7-.87-2.75-.52,1.4.7,2.8.7,4.2,1.4,0,0-.35-.35-.06-.38-.34-.15-.77-.31-1.38-.49Z"/>
            <path class="cls-6" d="m88.38,22.24c3.22,1.23,6.02,4.02,9.51,4.72-2.45-1.75-4.9-3.49-7.68-4.27-1.79-.68-1.88-.69-1.84-.46Z"/>
            <path class="cls-6" d="m119.7,55.93c0,.12.02.24.03.35.04.1.04,0-.03-.35Z"/>
            <path class="cls-6" d="m97.95,39.69c-1.45-1.56-2.85-3.65-4.95-4.35,2.1,2.1,3.85,3.84,5.95,5.94,0,0-.35-.35-.07-.41-.25-.37-.55-.76-.92-1.18Z"/>
            <path class="cls-6" d="m99.24,77.34c.76-1.48.76-2.88.76-4.28-.7,1.4-.7,3.49-1.03,5.11.07-.13.12-.28.28-.83Z"/>
            <path class="cls-6" d="m98.02,38.42c-.82-.98-1.87-2.03-3.27-2.73,1.05,1.05,2.45,2.44,3.76,3.51.36.31.15-.06-.48-.78Z"/>
            <path class="cls-6" d="m94.32,27.35c-1.67-.74-2.72-2.49-4.47-2.14,1.05.35,2.1,1.4,3.16,1.48.57.31,1.08.58,1.31.66Z"/>
            <path class="cls-6" d="m103.41,40.95c-2.02-2.81-4.12-5.61-7.26-7.35,2.8,1.4,4.55,4.54,6.76,6.74.17.21.51.7.5.62Z"/>
            <path class="cls-6" d="m84.35,29.81c-1.14-.05-2.19-.4-3.24-.75,1.4.7,2.8,1.4,4.6,1.37-.34-.25-.9-.47-1.36-.62Z"/>
            <path class="cls-6" d="m107.06,66.06c.99,2.45-.76,4.9-.41,7.34.7-2.1.35-4.54.47-6.71,0-.29-.03-.53-.06-.63Z"/>
            <path class="cls-6" d="m58.12,19.7c1.65-.08,2.7-1.12,3.75-1.47-1.05.35-1.75.35-2.67.85-.91.39-1.36.66-1.08.62Z"/>
            <path class="cls-6" d="m102.84,72.22c-.04-1.95.66-3.35.66-5.45-1.05,2.44,0,5.59-1.16,8.06.2-.8.39-1.74.51-2.62Z"/>
            <path class="cls-6" d="m106.67,53.74c.32,1.16,1.02,2.56,1.37,3.61-.35-1.75-1.05-3.14-1.52-4.45-.19-.36-.12-.04.15.84Z"/>
            <path class="cls-6" d="m57.66,19c1.05-.42,2.1-.07,3.15-1.12-1.4-.7-1.75,1.05-3.22,1.11-.13.08.02.01.07,0Z"/>
            <path class="cls-6" d="m96.93,85.4c.97-1.17,1.67-2.56,1.67-3.96-.35,2.44-2.45,3.84-2.89,6.05.3-.41.8-1.27,1.22-2.09Z"/>
            <path class="cls-6" d="m111.4,76.89c-.56,3.51-2.66,7-3.36,10.49,2.45-3.14,3.15-7.33,3.78-11.35-.03-.36-.18.06-.42.86Z"/>
            <path class="cls-6" d="m84.99,20.38c1.01-.4,1.71,1.69,2.76.64-1.05-.35-1.75-.35-2.82-.76-.22-.02-.16.02.06.12Z"/>
            <path class="cls-6" d="m83.91,24.45c-1.4,1.11-1.75-.63-2.8-.98.7,0,1.4.7,2.24.88.29.08.51.13.56.1Z"/>
            <path class="cls-6" d="m90.41,28.85c-.56-.15-1.26-.85-1.96-.85,1.75,1.05,3.85,2.44,5.6,3.49-.35-1.05-1.75-1.75-2.97-2.26-.22-.13-.45-.27-.67-.39Zm1.02.65c-.53-.45-.88-.1-1.09-.56.37.19.8.44,1.09.56Z"/>
            <path class="cls-6" d="m51.23,19.72c.14-.09-.21.26-.21.26,1.05-1.05,2.45-1.75,3.5-2.79q-.35.35-.81.7c-.87.6-1.69,1.21-2.47,1.83Z"/>
            <path class="cls-6" d="m79.07,9.14c1.69.01,3.79.71,5.19.71-1.4-.7-2.45-.35-3.86-.62-.65-.07-1.21-.11-1.32-.09Z"/>
            <path class="cls-6" d="m113.69,67.11c-.05.71-.05,1.41-.05,2.42.06-.82.08-1.64.05-2.42Z"/>
            <path class="cls-6" d="m45.93,24.95c.54-.44,1.24-1.14,1.59-1.49-.35.35-.7.7-1.13.87-.33.38-.36.46-.45.61Z"/>
            <path class="cls-6" d="m80.24,25.77c1.04.2,1.96.39,3.14.72-1.65-.57-3.01-.85-3.14-.72Z"/>
            <path class="cls-6" d="m63.99,106.96c2.42-.53,5.05-1.29,7.75-2.24-2.23.76-4.64,1.46-7.75,2.24Z"/>
            <path class="cls-6" d="m112.91,46.07c.39-1.65-1.36-2.7-2.06-4.1,1.05,1.05,1.75,2.44,1.78,3.57.11.22.27.57.28.53Z"/>
            <path class="cls-6" d="m79.86,9.97c1.24-.47,1.94,1.62,3.2.4-1.27-.23-2.6-.39-3.2-.4Z"/>
            <path class="cls-6" d="m33.8,41.65c.78,1.03-.27,2.07-.27,2.77,0-.7.35-1.75.26-2.41.02-.22.04-.45.01-.36Z"/>
            <path class="cls-6" d="m93.22,36.07c-.57-.39-1.12-.75-1.83-1.21,1.13.86,1.44,1.07,1.83,1.21Z"/>
            <path class="cls-6" d="m101.38,41.61c.72.72.72,1.41,1.42,2.11-.35-1.05-1.05-1.75-1.71-2.51.1.13.21.29.29.4Z"/>
            <path class="cls-6" d="m39.68,30.59c4.34-4.33.49-.49.53-.7.03-.1-.36.42-.53.7Z"/>
            <path class="cls-6" d="m98.79,56.79c-.54.56.16,1.25.51,1.6-.35-.35,0-.7-.23-.98-.09-.22-.19-.42-.28-.63Z"/>
            <path class="cls-6" d="m30.63,103.32c-.25-.57-.6-.23-.91-.41.35.17.67.31.91.41Z"/>
            <path class="cls-6" d="m94.03,29.13c-.74-.5-1.24-.79-1.85-1.11.68.42,1.2.75,1.85,1.11Z"/>
            <path class="cls-6" d="m104.3,51.04c.95,4.91,2.7,9.45,3.05,13.99,1.05-1.05-.7-2.1,0-2.79v.7c0-4.19-1.05-8.03-2.82-11.77-.26-.54-.44-.85-.22-.12Z"/>
            <path class="cls-6" d="m92.76,28.6c.24.45.59.1.82.48-.29-.23-.51-.33-.82-.48Z"/>
            <path class="cls-6" d="m87.6,35.22c-.19.12,2.26,1.87.04-.1-.31-.16-.31-.12-.04.1Z"/>
            <path class="cls-6" d="m62.83,20.27c-.39.11-.79.24-.96.37.32-.13.64-.25.96-.37Z"/>
            <path class="cls-6" d="m82.09,24.47c.07.04-.28-.3-.29-.15.15.06,0,.06.29.15Z"/>
            <path class="cls-6" d="m83.52,88.3c.04-.22.39-.57.47-.51-.15.15-.3.31-.47.51Z"/>
            <path class="cls-6" d="m96.16,32.66c-.36-.29-.58-.48-.89-.72.27.26.51.44.89.72Z"/>
            <path class="cls-6" d="m71.87,7.65c.42-.01.72-.03,1.15-.06-.53.01-.87.03-1.15.06Z"/>
            <path class="cls-6" d="m111.74,74.09c-.2.01.15-.34.05-.21,0-.02-.03.08-.05.21Z"/>
            <path class="cls-6" d="m90.44,43.03c.19.17.29.26.22.15-.19-.18-.32-.28-.22-.15Z"/>
            <path class="cls-6" d="m32.28,107.76c.44.17.89.34,1.69.62-.79-.3-1.24-.47-1.69-.62Z"/>
            <path class="cls-6" d="m31.92,107.6c.65.24,1.09.41,1.53.57-.47-.18-.93-.36-1.53-.57Z"/>
            <path class="cls-6" d="m113.64,69.54c-.02.29-.05.58-.08.87.04-.21.07-.46.08-.87Z"/>
            <path class="cls-6" d="m100.51,66.32c0-.24-.02-.44-.04-.45.01.13.01.55.04.45Z"/>
            <path class="cls-6" d="m83.47,22.12q.09.3.19.04c-.06-.02-.14-.03-.19-.04Z"/>
          </g>
          <g class="cls-8">
            <path class="cls-6" d="m87.11,24.3c3.93,1.2,7.3,3.88,11.15,4.19-4.44-2.9-9.08-4.85-14.43-5.43-.18.12,1.15.56,3.28,1.24Z"/>
            <path class="cls-6" d="m72.79,19.91q.4-.09.94.02c-1.71.14-3.75-.78-5.65.3,0,0,.63-.36.62-.27,1.07.05,2.53.01,4.09-.05Z"/>
            <path class="cls-6" d="m40.45,40.41c-.09.69-.19,1.16-.29,1.63-.34-1.06,1.9-1.08.48-2.37q-.1.47-.2.75h0Z"/>
            <path class="cls-6" d="m39.66,33.73c-.11.29-.2.77-.48.66.1-.08.28-.33.48-.66Z"/>
            <path class="cls-6" d="m116.87,51.63c.17.01,1-1.29-.3-.63.07.15.22.48.3.63Z"/>
            <path class="cls-6" d="m74.22,21.44c-.88.38-1.95.16-2.49.04,2.15.45,4.83,1.01,7.16.51-.54-.11-1.61-.34-2.21-.38-.82-.1-1.66-.16-2.47-.17Z"/>
            <path class="cls-6" d="m73.55,20.58c4.37.71,8.32.55,12.51,1.92-.15-2.01-2.78-.09-3.03-1.62l.54.11c-2.05-.92-4.92-.53-7.07-.98l.54.11c-1.07-.22-2.78-.09-3.99.07-1.54.16-1.45.18.5.38Z"/>
            <path class="cls-6" d="m56.92,78.89c.41-.21.95-.1,1.58-.46-1.95-1.39-4.48.05-6.63-.39,0,0-.1.47.57.76,1.05.24,3.58.32,4.47.1Z"/>
            <path class="cls-6" d="m65.2,109.25c.41.26.51-.21,1.05-.1-5.56-.17-11.3.61-16.95.91,2.34-.5,4.92.53,7.98.11,3.24-.11,6.31-.53,7.93-.91Z"/>
            <path class="cls-6" d="m30.76,32.4c.31-.63,1.04-1.47,1.14-1.94-2.15-.45-.82,1.31-1.38,2.04-.2.58-.04.37.24-.09Z"/>
            <path class="cls-6" d="m90.08,104.61c3.97-2.99,8.49-6,10.62-10.98-4.18,4.06-7.92,8.71-12.98,11.6.54.11,1.07.22,1.17-.25q-.63.36-1.26.72c.63-.36,1.26-.72,2.23-1.15.62-.36.4-.14.22.05Z"/>
            <path class="cls-6" d="m40.39,114.05c2.38.57,4.53,1.01,6.87.51-2.87.39-5.27-1.59-8.46-.85.3.09.59.15,1.59.33Z"/>
            <path class="cls-6" d="m17.2,84.95q.24.22.78.33c-1.95-1.39-3.81-3.26-5.67-5.13.69,2.12,3.91,2.79,4.75,4.69.04.04.09.07.14.11Z"/>
            <path class="cls-6" d="m115.9,78.22c-.53-1.76.92-3.43.14-5.07.06,2.48-.42,4.85-.68,7.17,0,.4.27-.56.54-2.1Z"/>
            <path class="cls-6" d="m94.38,27.3c-.85-.28-1.29-.87-2.37-1.09,1.86,1.87,4,2.31,6.59,3.35-.54-.11-.98-.7-1.65-.91-.9-.53-1.79-1.01-2.57-1.34Z"/>
            <path class="cls-6" d="m112.91,56.87c-.59-1.27-1.56-1.96-1.81-3.49,1.22,2.23,1.72,5.29,2.95,7.52.1-.47-.34-1.06-.34-1.6-.23-1.01-.54-1.87-.79-2.43Z"/>
            <path class="cls-6" d="m71.71,119.27c2.66-.53,5.63-1.39,8.16-2.84-3.7,1.7-7.64,1.86-11.34,3.56.54.11.63-.36,1.22-.28.84-.15,1.38-.28,1.96-.43Z"/>
            <path class="cls-6" d="m74.76,67.38c-.5-.48,1.3-1.09-.22-1.9-.1.47-.82,1.31-.04,1.8.08.07.11.34.26.09Z"/>
            <path class="cls-6" d="m35.99,49.75c.31.37.11,1.32.55,1.9.19-.95-.15-2.01-.57-3.08-.09.21-.06.69.02,1.17Z"/>
            <path class="cls-4" d="m55.55,119.07c6.54-.43,13.45-1.45,19.93-3.06-1.26.72-2.34.5-3.6,1.22,3.51-.75,7.2-2.45,10.81-3.67l-.63.36c2.63-1.92,5.6-2.78,8.13-4.23-1.07-.22-1.26.72-1.9,1.08,2.53-1.45,4.52-3,6.52-4.56q-.63.36-1.26.72c4.62-3.48,7.82-8.24,11.46-12.41l-.1.47c.19-.95,1.02-2.25,1.75-3.09l-.63.36c2.47-3.93,4.51-8.44,4.83-12.81-.1.47-.19.95-.29,1.42.58-2.84,1.15-5.68,1.73-8.52.5,3.06.55,5.54-.02,8.38.82-1.31.04-2.95,1.3-3.68-.1.47-.29,1.42-.38,1.89.04-2.95,1.06-5.21.56-8.27.54.11.44.59.34,1.06-.74-4.6-.42-8.97-2.87-13.42.44.59.25,1.53.15,2.01-1.91-4.35-2.75-8.47-6.57-11.73l.44.59c-.88-1.17-2.3-2.45-2.55-3.98,1.32,1.76,2.64,3.51,3.96,5.27-.34-1.06-.69-2.12-1.76-2.34,3.85.31,3.08,4.1,5.57,5.6-1.32-1.76-1.91-4.35-3.77-6.21,1.22,2.23,3.08,4.1,4.31,6.32.19-.95-1.32-1.76-1.13-2.7,4.15,4.32,5.24,9.97,6.97,15.27,1.52-13-8.99-24.57-19.74-32.23,1.07.22,1.51.81,2.49,1.51-1.61-.34-2.3-2.45-3.91-2.79,3.31.2,4.16,4.32,7.57,4.04-3.27-3.15-6.64-5.82-11.38-7.3.44.59,1.32,1.76,2.39,1.98-6.93-4.4-15.27-4.66-23.41-5.86,3.41-.28,6.28-.66,9.5,0-3.27-3.15-7.07-.98-10.92-1.29l.44.59c-2.24.03-4.67,1-6.92,1.03,7.59-4.34,16.86-.43,25.63.41.54.11-.98-.7-1.51-.81.54.11,1.51.81,2.24-.03-5.17-2.06-9.9-3.54-15.55-3.24,1.8-.61,3.22.67,5.02.06-2.87.39-5.9-1.23-8.43.22.63-.36,1.26-.72,1.61.34-6.38,1.14-12.66,1.8-18.26,4.58,5.44-4.79,13.14-4.17,19.81-6.73-15.84-1.82-30.68,7.92-32.39,21.87l.1-.47c-1.36,1.2-.58,2.84-1.4,4.15-.34-1.06-.15-2.01.04-2.95-.19.95-.38,1.89-.58,2.84-1.57-3.29.62-5.79.66-8.74-2.47,3.92-3.43,8.66-2.69,13.25.19-.95.38-1.89.04-2.95,2.6,6.46,3.94,13.65,10.87,18.05l-.54-.11c1.17-.25,1.51.81,2.05.92-.54-.11-.73.83-1.17.25,2.3,2.45,5.8,1.7,8.39,2.73-.19.95-1.61-.34-1.8.61,3.75.78,9.65,2.01,12.13-1.91,1.32,1.76-2.09,2.03-1.11,2.73,1.51.81,2.34-.5,2.63-1.92-.63.36-1.17.25-1.07-.22,1.9-1.08,3.79-2.17,3.74-4.65,2.15.45,2.05.92,3.51-.75,1.32,1.76.4,3.54,1.09,5.65.82-1.31,1.65-2.62,1.94-4.04.69,2.12,1.38,4.23,1.53,6.24.1-.47.19-.95.29-1.42,1.03,3.18-1.06,5.21-2.07,7.46,2.76-5.35,6.35-12,1.31-17.49-.1.47.44.59.98.7-.88-1.17-.06-2.48.14-3.43.88,1.17,1.76,2.34,1.47,3.76l-.44-.59c.06,2.48,1.28,4.71,1.87,7.3,1.02-2.25.86-4.26-.36-6.49,5.23,4.54,2.81,10.95,1.31,15.57,1.17-.25.82-1.31,1.02-2.25.15,2.01-1.21,3.2-2.57,4.4.82-1.31,2.09-2.03,1.3-3.68l-.63.36c.19-.95.38-1.89.58-2.84-1.46,1.67-2.47,3.93-3.49,6.18l.54.11c-1.75,3.09-5.44,4.79-8.16,7.18.63-.36,1.26-.72,1.9-1.08-.73.83-1.46,1.67-2.63,1.92.63-.36.73-.83,1.8-.61-2.43.97-3.89,2.64-6.23,3.14,1.07.22,1.8-.61,2.43-.97-1.36,1.2-2.53,1.45-4.23,1.58.54.11,1.07.22,1.17-.25-2.97.86-6.04,2.2-9.89,1.89,3.22.67,6.82-.55,9.79-1.41-1.8.61-3.16,1.81-5.4,1.83,2.24-.03,3.6-1.22,5.84-1.25-.54-.11-.63.36-1.17.25,1.71-.14,2.97-.86,4.23-1.58q-.63.36-1.26.72c2.43-.97,4.87-1.95,6.96-3.98-2.76,5.35-.1.47-.1.47,2.53-1.45,4.18-4.06,6.17-5.62-.1.47-.63.36-.73.83,1.74-3.09,5.1-5.84,5.33-9.74.94,3.65-1.54,7.57-4.26,9.97l.63-.36c-.73.83-.48,2.37-2.28,2.98.73-.83,1.55-2.14,2.72-2.39-.1.47-.82,1.31-1.46,1.67,6.08-5.15,7.17-13.31,7-20.74.69,2.12.74,4.6.36,6.49.1-.47.29-1.42.38-1.89.3,4.01-1.63,8.05-2.94,11.72.19-.95,1.46-1.67,1.65-2.62-1.02,2.25-1.94,4.04-3.39,5.71l.1-.47c-4.07,9.02-15.22,11.63-24.32,15.16,7.45-.91,14.12-3.47,19.91-7.2-1.17.25-1.9,1.08-2.63,1.92.63-.36,1.17-.25,1.36-1.2-3.01,3.81-8.66,4.12-12.55,6.76,7.55-1.39,13.53-6.06,18.88-10.37-3.11,4.29-8.61,6.59-13.13,9.6,4.67-1,8.03-3.75,11.38-6.51-2.91,3.34-7.24,5.4-11.57,7.46q.63-.36,1.26-.72c-6.92,1.03-12.95,3.22-19.77,3.77,2.59,1.03,4.58-.53,7.26.03-1.17.25-2.87.39-4.48.05,7.8.14,13.93-2.52,20.6-5.08-7.88,5.76-19.43,4.83-29.22,6.25,13.51,2.32,27.28-2.21,37.69-9.42-.82,1.31-2.19,2.5-3.99,3.12.54.11,1.07.22,1.26-.72-3.55,3.7-8.76,4.59-13.62,6.54,2.97-.86,5.75-.78,8.28-2.22-.54-.11-.63.36-1.17.25,4.43-2.53,8.85-5.06,13.38-8.07,0,0-3.31-.2-.1.47.29-1.42,1.46-1.67,2.19-2.51-.82,1.31-1.11,2.73-2.38,3.45q.1-.47.19-.95c-4.18,4.06-9.24,6.96-14.83,9.74,8.72-1.64,14.45-7.84,19.55-13.69-1.74,3.09-4.56,5.96-7.28,8.35,4.23-1.58,6.08-5.15,8.36-8.13-.1.47-.29,1.42-.92,1.78.82-1.31,2.63-1.92,2.91-3.34-.19.95-1.02,2.25-1.21,3.2,3.55-3.7,5.48-7.74,6.98-12.36.34,1.06.15,2.01-.04,2.95.19-.95.29-1.42,1.02-2.26l-.19.95c2.03-4.51,1.92-9.47,1.81-14.42,1.09,5.65.47,11.45-2.29,16.79.1-.47.29-1.42.38-1.89-1.5,4.62-4.51,8.44-7.52,12.25l-.44-.59c-5.83,6.68-13.51,11.49-22.08,15.13,4.58-.53,8.47-3.17,12.26-5.34q-.63.36-1.26.72c1.26-.72,3.16-1.81,4.87-1.95-.1.47-.73.83-.82,1.31q.63-.36,1.26-.72c-7.72,7.76-20.48,10.04-32.08,12.06l.63-.36c-1.17.25-1.8.61-2.87.39q.54.11,1.07.22c-.63.36-1.17.25-1.71.14l1.61.34c-1.07-.22-1.9,1.08-3.41.28,1.17-.25,1.71-.14,2.78.09-.54-.11-1.07-.22-1.71.14,2.24-.03,3.95-.16,6.19-.19-2.97.86-6.82.55-9.79,1.41,11.94-.97,24.85-1.24,33.2-9.36,1.99-1.56-.1.47-.1.47,1.26-.72,2.09-2.03,3.79-2.17l-.54-.11c.63-.36,1.26-.72,1.9-1.08l-.63.36c3.26-2.28,5.54-5.26,8.26-7.65-.63.36-.73.83-.82,1.31,1.46-1.67,2.47-3.92,4.47-5.48-.19.95-.38,1.89-1.02,2.25,1.46-1.67,1.94-4.04,3.39-5.71-.1.47-.19.95-.29,1.42.1-.47.63-.36.73-.83-.29,1.42-2.09,2.03-1.84,3.56.1-.47.29-1.42.92-1.78-.63.36-.82,1.31-1.02,2.25,2.82-2.87,4.22-7.02,7.04-9.88-.29,1.42-1.65,2.62-1.84,3.56.44.59,1.26-.72.63-.36-.48,2.37-.96,4.73-2.51,6.88,1.46-1.67,1.94-4.04,3.39-5.71-.23,3.9-3.59,6.65-5.87,9.63.19-.95,1.9-1.08,1.65-2.62-2.38,3.45-5.64,5.73-8.45,8.6.63-.36.73-.83.82-1.31-4.52,3-9.14,6.48-14.2,9.38.63-.36,1.8-.61,2.43-.97-5.69,3.25-11.63,4.98-18.11,6.59,2.34-.5,4.67-1,7.01-1.5-1.71.14-2.97.86-4.77,1.47,1.71-.14,3.07-1.33,5.31-1.36-1.9,1.08-3.7,1.7-5.94,1.72,1.61.34,3.51-.75,5.21-.89-2.43.97-5.21.89-7.64,1.86,1.17-.25,2.34-.5,3.51-.75-4.67,1-9.89,1.89-14.91,1.94.53.02.97,0,1.37,0Zm49.79-72.74c1.02.14.92.61.83,1.08-.54-.11-.44-.58-.75-.75-.23-.39-.2-.43-.08-.34Zm-19.16,17.99c-.24.09-.14-.38-.03-.13.01.04.02.09.03.13Zm2.4.21c-.05.91-.84-.73-1.03.22.1-.47.82-1.31-.15-2.01.54.11.44.59.89.46.1.44.2.88.29,1.33Zm-27,32.55c-.19.2.44-.16.14-.01-.04,0-.07,0-.14.01Zm27.56-22.4c-.28.2-.38.68-.48,1.15.1-.47.29-1.42.61-1.94,0,.19-.05.47-.13.79Zm.57-8.74c-.19.2-.1-.27,0-.03,0,.01,0,.02,0,.03Zm-12.85-3.15c-.02-.28.51-.17.61-.64.34,1.06.15,2.01.5,3.06-.44-.59-1.42-1.28-1.11-2.42,0,0,0,0,0,0Zm-.24.97c-.08.17.02-.31,0-.22,0,.08,0,.15,0,.22Zm11.12,28.89c-.2-.29.34-.17.06-.05-.02.02-.04.04-.06.05Zm-28.24-23c.2.14-.34.03-.08.02.03,0,.05-.01.08-.02Zm36.25,16.99c-.42.44-1.05.8-1.15,1.27.73-.83,1.55-2.14,2.28-2.98-.1.47-.82,1.31-1.13,1.71,0,0,0,0,0,0Zm-39.45-18.13c.37-.34,1.54-.59.72.72-.44-.59-1.8.61-1.37-.56-.05-.19.16-.25.65-.15Zm43.48,22.77q.24.22.06-.08s-.04.06-.06.08Zm9.38-26.4c-1.87-.97,1.2-2.3-.31-3.11,0,0-.1.47-.12.39.27,1.19.39,2.03.43,2.72Zm-1.42,17.16c-.24.17-.34.64-.22.8.12-.4.17-.61.22-.8Zm1.1-24.3c-.44-1.99-1.67-4.22-2.89-6.45,2.3,2.45,2.89,5.04,3.53,7.93-.15-.27-.39-.89-.64-1.48Zm1.38,16.83c-.01-.19-.11.28,0,.12,0-.04,0-.08,0-.12Zm-1.2,6.69c-.16-.26-.25.22-.02.06,0-.02.01-.04.02-.06Zm-1.18,3.4q.35-.34.36-.72c-.2.47-.52,1.23-.36.72Z"/>
            <path class="cls-6" d="m56.36,117.52c1.97.34,3.77-.27,6.01-.3-.54-.11-.63.36-1.17.25,1.8-.61,3.41-.28,4.67-1-5.21.89-10.33,1.3-15.25.77q.54.11.85.22c1.57.09,3.33.11,4.88.06Z"/>
            <path class="cls-6" d="m103.54,102.83c-1.55.94-2.47,2.72-3.83,3.92,1.99-1.56,3.99-3.12,5.18-5.23.2-.32-.29.18-1.35,1.31Z"/>
            <path class="cls-6" d="m33.1,52.54c-.85-1.79.07-3.57-1.35-4.85.44.59.88,1.17.78,1.64l-.54-.11c.34,1.06.69,2.12.69,2.98.23.54.35.55.41.34Z"/>
            <path class="cls-6" d="m117.17,59.57c1.32,4.22,1.62,8.23,1.83,12.71.96-4.73-1.39-9.66-2.24-14.29.06.35.26,1.07.41,1.58Z"/>
            <path class="cls-6" d="m83.32,101.2c.25-.28.78-.17.88-.65-4.33,2.06-8.66,4.12-13.43,5.59,3.95-.16,6.67-2.56,9.9-3.25,1.76-.98,2.58-1.53,2.66-1.7Z"/>
            <path class="cls-6" d="m36.99,56.48c-.15-.81-.49-1.87-.84-2.93-1.36,1.2.69,2.12.89,3.18.04,0-.03-.15-.06-.25Z"/>
            <path class="cls-6" d="m30.79,105.49c.36.3.89.41,1.43.52-1.42-1.28-3.12-1.14-4.64-1.95.54.11.98.7,1.42.76.35.17,1.03.43,1.79.67Z"/>
            <path class="cls-6" d="m82.39,115.86c2.05.04,3.51-1.63,5.31-2.25l-.63.36c5.79-3.73,12.02-6.87,15.95-12.47-5.54,5.26-11.61,10.41-18.64,13.34-1.23.59-1.85.9-1.98,1.01Z"/>
            <path class="cls-6" d="m27.8,111.4c2.74.18,4.6,2.04,7.37,2.13-3.75-.78-7.85-2.62-11.46-3.78.9.44,2.55,1.1,4.08,1.65Z"/>
            <path class="cls-6" d="m63.05,21.03c.89.31,1.71-.99,2.78-.77-1.26.72-1.9,1.08-3.71.88.1.03.42-.02.93-.11Z"/>
            <path class="cls-6" d="m96.06,30.47c-1.3-1.23-3.45-1.68-4.96-2.49,1.42,1.28,3.03,1.62,4.59,2.36.38.2.54.26.38.13Z"/>
            <path class="cls-6" d="m109.39,43.86c1.98,2.66,3.65,5.47,5.22,8.76-.4-3.54-3.77-6.21-5.29-8.95-.1-.1-.33-.33.07.19Zm2.07,2.77c.35.47.89.58.7,1.53-.44-.59-.34-1.06-.91-1.83.05.05.15.22.21.3Z"/>
            <path class="cls-6" d="m71.01,67.85c-.26-.2-.79-.31-.99.64.54.11.63-.36.9-.28.09-.13.17-.29.08-.36Z"/>
            <path class="cls-6" d="m46.16,70.91c-.64-.13-1.71-.35-2.25-.46,0,0,.54.11.51.23.61.11,1.19.19,1.74.24Z"/>
            <path class="cls-6" d="m26.29,63.26c-.83-1.09-2.24-2.37-1.96-3.79-.19.95.78,1.64,1.24,2.79.3.48.59.9.72,1Z"/>
            <path class="cls-6" d="m50.18,70.91c-.72-.29-1.25-.4-1.79-.51.44.58.98.7,1.54.68.3,0,.22-.1.25-.17Z"/>
            <path class="cls-6" d="m41.88,25.59c2.19,0-.49-.56.14-.92q-.63.36-1.26.72s.54.11.43-.07c.12.2.65,0,.7.27Z"/>
            <path class="cls-6" d="m102.67,37.82c1.06.86,1.94,1.61,3.23,2.86-2.27-2.3-3.71-3.47-3.23-2.86Z"/>
            <path class="cls-6" d="m27.64,62.69c-.37-1.13-.81-1.72-1.44-2.26.46.93,1.07,1.87,1.44,2.26Z"/>
            <path class="cls-6" d="m70.29,74.2c.92-.53,1.01-1,1.65-1.36-.63.36-.73.83-1.45,1.1-.12.11-.24.24-.2.26Z"/>
            <path class="cls-6" d="m76.74,82.62c0-.4.54-.29.63-.76-.63.36-1.26.72-1.23,1.15.18-.1.32-.16.59-.39Z"/>
            <path class="cls-6" d="m114.36,77.11c.05-.84.07-1.63.1-2.72-.21,2.18-.24,2.65-.1,2.72Z"/>
            <path class="cls-6" d="m41.75,94.37c-.4-.28-.93-.39-1.47-.5.54.11,1.07.22,1.65.61.16.02.19,0-.18-.1Z"/>
            <path class="cls-6" d="m115.66,82.47c-.03.95-.32,2.37-1.05,3.2,1.36-1.2,1.11-2.73,1.24-3.95-.06.25-.15.57-.19.75Z"/>
            <path class="cls-6" d="m60.91,73.96c.16.07-.37-.04-.17.1.16-.04.16-.07.17-.1Z"/>
            <path class="cls-6" d="m73,112.15c.46-.01,1.09-.38,1.76-.62-.58.21-1.2.43-1.76.62Z"/>
            <path class="cls-6" d="m73.26,77.92c-.14.1-.24.57-.15.43.24-.31.35-.5.15-.43Z"/>
            <path class="cls-6" d="m69.22,108.62q.54-.22,1.17-.58c-.63.36-1.8.61-2.12.76-.13.05.5-.08.95-.18Z"/>
            <path class="cls-6" d="m108.45,39.86c-.97-1.02-1.5-1.52-2.03-1.96.89.88,1.55,1.55,2.03,1.96Z"/>
            <path class="cls-6" d="m109.8,39.59c.14.21-.3-.37-.21-.32-.02,0-.06.01.21.32Z"/>
            <path class="cls-6" d="m32.4,47.83c.1-.08.21-.16.31-.26-.12-.11-.24-.25-.31.26Z"/>
            <path class="cls-6" d="m108.11,39.9c.37.41.63.75.92,1.04-.38-.47.3.28-.11-.22-.5-.61-.61-.67-.81-.83Z"/>
            <path class="cls-6" d="m111.55,77.96c.12.2.21-.28.17-.36.05-.46-.01-.32-.17.36Z"/>
            <path class="cls-6" d="m59.09,93.53c1.16,1.05-.35.24-.32,0-.04.02.08.02.32,0Z"/>
            <path class="cls-6" d="m83.51,63.02c-.06-.12-.88,1.19.24.64-.03-.33-.12-.34-.24-.64Z"/>
            <path class="cls-6" d="m42.62,35.1c-.25.41-.45.78-.22.6.07-.2.15-.4.22-.6Z"/>
            <path class="cls-6" d="m96.71,31.47c1.07-.61-.63-.47-.83-.55.33.21.37.28.83.55Z"/>
            <path class="cls-6" d="m30.77,47.18s-.11-.18-.07.47c.05.02.04-.32.07-.47Z"/>
            <path class="cls-6" d="m116.01,54.53c-.28-.66-.46-1.07-.71-1.62.3.77.46,1.09.71,1.62Z"/>
            <path class="cls-6" d="m24.84,65.77c-.16-.27-.31-.49-.57-.84.22.36.36.59.57.84Z"/>
            <path class="cls-6" d="m97.21,97.07c-.26.3-.39.45-.17.26.26-.3.41-.49.17-.26Z"/>
            <path class="cls-6" d="m89.1,95.92c.27-.19.46-.32.87-.68-.15.09-.36.26-.87.68Z"/>
            <path class="cls-6" d="m114.94,75.49c-.59,3.23-1.36,7.01-2.03,10.33,1.84-3.56,2.07-7.46,2.17-11.4-.05.2-.1.55-.14,1.07Z"/>
            <path class="cls-6" d="m59.35,114.9c.42-.04.74-.07.72-.09-.2.03-.95.08-.72.09Z"/>
            <path class="cls-6" d="m61.12,103.02c.19.17-.35.06-.37.06.23-.03.57-.07.37-.06Z"/>
            <path class="cls-6" d="m86.96,94.41c.19-.14-.44.22-.25.18.06-.04.16-.12.25-.18Z"/>
            <path class="cls-6" d="m50.16,101.15c-4.5-.73-9.33-1.74-13.62-2.63,4.1,1.84,8.49,2.26,12.79,2.77,1.54.09,1.64,0,.83-.14Z"/>
            <path class="cls-6" d="m40.33,100.99c-.86-.38-1.93-.61-3.01-.83,1.42,1.28,3.66,1.26,5.05,1.45.36-.01-.42-.22-2.04-.62Z"/>
            <path class="cls-6" d="m19.81,91.4c-4.99-4.31-10.22-8.85-14.81-13.76,4.06,4.79,8.12,9.59,14.17,13.39.39.25.84.53.65.37Z"/>
            <path class="cls-6" d="m79.23,97.46c.72-.75,1.89-1,2.62-1.83-.73.84-2.34.5-2.63,1.84h0Z"/>
            <path class="cls-6" d="m54.35,104.57c6.38,1.45.48.22.39.05.16-.02.02-.04-.39-.05Z"/>
            <path class="cls-6" d="m19.83,87.05c0,.1.55.21.53.45.01-.02-.18-.18-.53-.45Z"/>
            <path class="cls-6" d="m37.05,96.99c-.22.11.31.22.41.14-.04-.02-.25-.09-.41-.14Z"/>
            <path class="cls-6" d="m52.68,101.93c1.21-.78,3.17.61,4.43-.11-2.24.03-3.85-.31-5.89-.02.29.05.72.1,1.46.14Z"/>
            <path class="cls-6" d="m45.79,101.73c-3.99-1.62-8.38-2.04-12.67-2.94,1.61.34,3.56,1.73,5.27,1.59l-.54-.11c1.61.34,3.22.67,4.92,1.11,2.41.42,2.57.43,3.02.35Z"/>
            <path class="cls-6" d="m69.07,93.24c2.24-.79,5.12-1.18,6.67-3.33-1.99,1.56-5.4,1.83-7.52,3.52.15,0,.42-.06.84-.19Z"/>
            <path class="cls-6" d="m75.42,79.98c.82-.81,1.02-1.76,1.74-2.59-.73.83-1.02,2.25-2.03,2.76.01.04.05.03.28-.16Z"/>
            <path class="cls-6" d="m64.94,95.19c2.38.37,3.3-1.41,5.01-1.55-1.71.14-2.97.86-4.86,1.35-.81.23-.89.32-.15.2Z"/>
            <path class="cls-6" d="m43.7,99.93c1.86.96,3.66.35,5.81.79-1.07-.22-2.68-.56-3.75-.5-.8-.11-1.56-.24-2.06-.29Z"/>
            <path class="cls-6" d="m44.26,97.2c4.11.83,7.96,1.14,11.91.97-3.95.16-7.26-.03-10.84-.8-.36-.05-.86-.17-1.07-.17Z"/>
            <path class="cls-6" d="m80.91,87.38c.52-.72,1.88-1.92,2.61-2.76-1.26.72-2.09,2.03-3.39,3.27-.04.14.37-.16.78-.52Z"/>
            <path class="cls-6" d="m49.66,94.18c-2.66-.39-4.81-.84-7.49-1.39,2.15.45,4.29.89,6.5,1.32.32.04.66.07.99.07Z"/>
            <path class="cls-6" d="m74.23,101.51c-1.43.12-2.69.84-3.96,1.57.63-.36,1.8-.61,2.49-.94,1.04-.36,1.66-.64,1.47-.63Z"/>
            <path class="cls-6" d="m69.68,87.52c.54-.73,2.15-.4,2.88-1.23-1.71.14-2.53,1.45-4.15,1.63.26-.03.7-.16,1.27-.39Z"/>
            <path class="cls-6" d="m49.22,95.64c-1.33-.68-3.67-.18-5.28-.51,1.51.81,3.95-.16,5.31.62.78.04.73,0-.03-.11Z"/>
            <path class="cls-6" d="m73.51,102.45c-.56,1.19-2.51-.2-3.34,1.1,1.17-.25,2.87-.39,3.37-1.09.18-.08,0-.02-.03-.02Z"/>
            <path class="cls-6" d="m68.88,85.39c.56-.25,1.73-.5,2.36-.86-1.17.25-2.34.5-3.35,1.14.02.08.53-.1.99-.28Z"/>
            <path class="cls-6" d="m7.65,73.31c-2.19-3.47-3.66-7.23-5.77-10.63.94,3.65,3.04,7.05,5.28,10.27.56.71.63.7.48.36Z"/>
            <path class="cls-6" d="m48.29,102.57c-1.31-.4-2.57.32-3.55-.37,1.07.22,2.15.45,3.41.43.35.01.34,0,.15-.05Z"/>
            <path class="cls-6" d="m62.75,99.29c-.04-.25-.14.22-.14.22,1.17-.25,2.24-.03,3.51-.75-1.07-.22-1.26.72-2.51.35-.34.06-.66.12-.85.18Z"/>
            <path class="cls-6" d="m61.48,98.23c1.42-.14,2.06-.5,3.13-.28-2.78-.09-5.12.41-7.89.33,1.61.34,2.87-.39,4.01.03.25-.02.49-.04.75-.08Zm-.94.05c.66-.05,1.29-.42,1.83-.3,0,0-.54-.11-.31.08-.51.08-1.01.13-1.53.22Z"/>
            <path class="cls-6" d="m78.06,102.82c-1.16.66-2.96,1.27-4.22,1.99q.63-.36,1.15-.53c1.06-.47,2.08-.96,3.08-1.46Z"/>
            <path class="cls-6" d="m46.6,110.27c-1.79-.16-3.4-.49-5.01-.83,1.07.22,2.68.56,3.67.71.65.08,1.22.13,1.34.12Z"/>
            <path class="cls-6" d="m8.35,76.19c-.28.12.25.23.25.23-.44-.59-1.32-1.76-1.74-2.31.38.6.86,1.28,1.49,2.08Z"/>
            <path class="cls-6" d="m85.1,98.4c-.51.26-1.14.63-1.87,1.46q.63-.36,1.18-.9c.45-.32.53-.41.69-.56Z"/>
            <path class="cls-6" d="m74.94,93.91c-1.11.53-2.17,1-3.35,1.45,1.22-.37,2.66-1,3.35-1.45Z"/>
            <path class="cls-6" d="m57.57,83.56c1.06.03,2.29-.02,3.59-.14-.97.03-2.05.05-3.59.14Z"/>
            <path class="cls-6" d="m11.02,83.77c.87,1.22,2.29,2.5,3.8,3.31-.88-1.17-2.39-1.98-3.26-2.8-.21-.2-.51-.5-.54-.51Z"/>
            <path class="cls-6" d="m45.96,109.56c-1.06.08-2.67-.26-3.74-.48,0,0,.54.11.49.05,1.28.23,2.62.4,3.25.43Z"/>
            <path class="cls-6" d="m100.17,86.51c.99-.68,1.18-1.62,1.37-2.57-.19.95-.82,1.31-1.22,2.22-.1.2-.21.41-.15.35Z"/>
            <path class="cls-6" d="m77.02,88.89c.68-.49,1.34-.99,2.09-1.57-.9.61-1.26.88-2.09,1.57Z"/>
            <path class="cls-6" d="m57.29,96.61c-1.37.02-1.9-.09-3.07.16,1.07.22,2.24-.03,3.52-.17-.15,0-.29,0-.45.01Z"/>
            <path class="cls-6" d="m91.79,94.69c-.25,0,.39-.37.39-.37-.1.47-.19.95-1.05.89-.08.1.42-.29.67-.52Z"/>
            <path class="cls-6" d="m81.45,68.96q.13.45-.02.71c.01-.24.01-.47.02-.71Z"/>
            <path class="cls-6" d="m40.91,80.4c-6.53-1.57-.63-.34-.49-.2.16.09.33.15.49.2Z"/>
            <path class="cls-6" d="m50.05,99.63c.92.09,1.62.13,2.58.16-.82-.06-1.48-.11-2.58-.16Z"/>
            <path class="cls-6" d="m61.2,94.41c-4.35.44-8.64-.45-13.22.07.54.11,1.07.22,1.61.34l-.54-.11c3.85.31,7.6,1.09,10.93,0,.77-.12,1.37-.24,1.22-.3Z"/>
            <path class="cls-6" d="m52.67,99.63c-.19.23-.73.12-1.2-.05.25.04.66.04,1.2.05Z"/>
            <path class="cls-6" d="m86.08,75.03q-.1.24-.1.51c.13-.31.15-.47.1-.51Z"/>
            <path class="cls-6" d="m73.11,100.12c.4-.13.84-.29,1.18-.48-.4.17-.78.32-1.18.48Z"/>
            <path class="cls-6" d="m16.59,23.47s-.1.1-.3.42c-.02.09.05,0,.3-.42Z"/>
            <path class="cls-6" d="m57.46,70.79c-.19-.02.34.09.33-.05-.15,0-.25.02-.33.05Z"/>
            <path class="cls-6" d="m53.9,98.62c.46.02.74.02,1.13.03-.17-.04-.54-.03-1.13-.03Z"/>
            <path class="cls-6" d="m53.33,111.86c-.41-.02-.72-.02-1.15-.02.53.02.86.03,1.15.02Z"/>
            <path class="cls-6" d="m24.47,75.8c.18.18.36.36.68.68-.22-.25-.41-.44-.68-.68Z"/>
            <path class="cls-6" d="m24.44,75.73c.29.28.49.47.69.66-.15-.16-.31-.33-.69-.66Z"/>
            <path class="cls-6" d="m6.85,74.09c-.13-.21-.26-.42-.39-.63.04.09.13.25.39.63Z"/>
            <path class="cls-6" d="m79.55,74.7c.07-.13.13-.24.14-.32-.04.1-.15.26-.14.32Z"/>
            <path class="cls-6" d="m15.31,88.9c.29-.17.2.3.32.26-.09-.08-.22-.18-.32-.26Z"/>
            <path class="cls-6" d="m55.8,101.43c.24.16-.3.05-.26,0,.06,0,.18,0,.26,0Z"/>
          </g>
          <g>
            <path class="cls-5" d="m87.51,39.63s.08.09.12.13c0,0,.02,0,.03.01-.04-.04-.08-.08-.15-.15Z"/>
            <path class="cls-5" d="m91.36,37.18s.05.05.07.07c.61.28,1.24.54,1.68.98-.35-.35-.7-1.4-1.75-1.05Z"/>
            <path class="cls-5" d="m105.56,74.41c-.18,1.21-.42,2.42-.55,3.64.32-1.18.47-2.4.55-3.64Z"/>
            <path class="cls-5" d="m106.4,68.96c.27-.81.12-1.63-.13-2.44.15.79.25,1.6.13,2.44Z"/>
            <path class="cls-5" d="m77.64,25.91c.98.08,1.93.32,2.85.9,1.61.29,3.22.61,4.83.89-2.08-1.45-5.12-2.38-7.68-1.79Z"/>
            <path class="cls-5" d="m105.01,67.57c.37-.74-.04-1.28-.35-1.78.03.17.02.33.03.5.08.4.17.81.33,1.29Z"/>
            <path class="cls-5" d="m105.35,69.31c0-.18,0-.37.01-.57,0-.04-.01-.09-.01-.13v.7Z"/>
            <path class="cls-5" d="m82.79,24.99c-1.07-.24-2.15-.45-3.26-.58-.82.16-1.58-.02-2.34-.18,0,0,0,0-.01,0-.08,0-.15,0-.23,0,1.93.3,3.84.68,5.84.76Z"/>
            <path class="cls-5" d="m105.7,70.2c-.04,1.42-.05,2.83-.14,4.21.21-1.4.33-2.81.14-4.21Z"/>
            <path class="cls-5" d="m104.81,57.71c.02.07.02.14.02.2.04.11.08.21.12.32-.04-.18-.09-.36-.13-.53Z"/>
            <path class="cls-5" d="m76.12,24.09c.35.05.7.09,1.05.14,0,0,0,0,0,0-.35-.07-.7-.13-1.06-.14Z"/>
            <path class="cls-5" d="m74.2,23.92c.6.04,1.19.1,1.78.17.05,0,.1,0,.15,0-.65-.09-1.3-.16-1.93-.17Z"/>
            <path class="cls-5" d="m73.59,23.96c-.26.03-.51.08-.77.12-.15.03-.3.05-.45.1.23-.03.43.05.6.32.29-.17.58-.33.86-.54-.08,0-.16,0-.23.01Z"/>
            <path class="cls-5" d="m72.37,24.17c-.26.03-.55.19-.84.35.27-.16.56-.26.84-.35Z"/>
            <path class="cls-5" d="m79.96,24.31c-.27.04-.54.04-.81.05.13.01.25.04.38.05.14-.03.28-.05.43-.1Z"/>
            <path class="cls-5" d="m79.15,24.35c-.65-.07-1.3-.11-1.97-.13,0,0,0,0,0,0,.65.08,1.31.14,1.96.13Z"/>
            <path class="cls-5" d="m58.64,24.89c-1.82.96-3.53,2.04-5.07,3.22-.08-.19-.13-.35-.17-.5-5.87,3.86-10.03,9.67-11.02,16.52,0,0,0,0,.01-.01l-.1.47c.02-.16.06-.3.08-.46-1.34,1.19-.57,2.83-1.39,4.14-.34-1.06-.15-2.01.04-2.95-.19.95-.38,1.89-.58,2.84-1.57-3.29.62-5.79.66-8.74-2.47,3.92-3.43,8.66-2.69,13.25.19-.95.38-1.89.04-2.95,2.58,6.42,3.93,13.54,10.73,17.95.84.05,1.19.81,1.66.91-.45-.09-.66.55-.98.41,2.3,2.23,5.68,1.57,8.2,2.57-.19.95-1.61-.33-1.8.61,3.75.78,9.65,2.01,12.13-1.91,1.32,1.76-2.09,2.03-1.11,2.73,1.51.81,2.34-.5,2.63-1.92-.63.36-1.17.25-1.07-.22,1.9-1.09,3.79-2.17,3.74-4.65,2.15.45,2.05.92,3.51-.75,1.32,1.76.4,3.54,1.09,5.65.82-1.31,1.65-2.62,1.94-4.04-.44-.58-1.42-1.28-1.11-2.42,0,0,0,0,0,0-.02-.28.51-.17.61-.64.34,1.06.15,2.01.5,3.06.69,2.12,1.38,4.23,1.53,6.24.1-.47.19-.95.29-1.42.37,1.15.33,2.14.09,3.05,1.8-4.13,2.76-8.59-.4-12.52-.3-.1-.52-.25-.45-.56.17.18.3.37.45.56.16.05.34.1.52.14-.88-1.17-.06-2.48.14-3.43.88,1.17,1.76,2.34,1.47,3.76l-.44-.58c.06,2.48,1.28,4.71,1.87,7.3,1.02-2.26.86-4.26-.36-6.49,5.23,4.54,2.81,10.95,1.31,15.57.33-.07.53-.21.67-.39-.47.99-1.34,1.76-2.22,2.53.82-1.31,2.09-2.03,1.3-3.67l-.63.36c.19-.95.38-1.89.58-2.84-1.46,1.67-2.47,3.92-3.49,6.18l.54.11c-1.74,3.09-5.44,4.79-8.16,7.18.63-.36,1.26-.72,1.9-1.08-.4.46-.81.91-1.29,1.27.14,0,.27,0,.46.04-2.43.97-3.89,2.64-6.23,3.14,1.07.22,1.8-.61,2.43-.97-1.05.92-1.99,1.28-3.14,1.46-.15.25-.49.24-.88.17-2.53.79-5.2,1.72-8.39,1.59-.04,0-.07.01-.11.01l.05.05c3.09.46,6.48-.66,9.3-1.48-1.8.61-3.16,1.81-5.4,1.83,2.08-.02,3.43-1.02,5.4-1.19-.08.04-.16.07-.23.11,1.45-.23,2.6-.85,3.74-1.5q-.63.36-1.26.72c1.03-.41,2.06-.84,3.06-1.33.6-.35,1.21-.68,1.78-1.06,0,.03-.02.04-.03.07.74-.47,1.47-1,2.15-1.66-2.76,5.35-.1.47-.1.47,2.32-1.33,3.91-3.6,5.69-5.18,1.79-2.93,4.86-5.62,5.08-9.35.94,3.65-1.54,7.57-4.26,9.97l.63-.36c-.26.3-.4.69-.55,1.1.3-.24.62-.43.99-.51-.02.11-.08.23-.16.36,4.89-5.16,5.86-12.59,5.71-19.44.69,2.12.74,4.6.36,6.49.1-.47.29-1.42.38-1.89.3,4.01-1.63,8.05-2.94,11.72.14-.7.88-1.29,1.33-1.93-.9,1.93-1.77,3.53-3.07,5.02l.1-.47c-.35.78-.77,1.49-1.22,2.18-.11.43-.38.7-.64.97,0,0,0,0,0,0-.23.3-.47.57-.72.85-.89,1.1-1.89,2.03-2.77,3.34,2.8-1.4,4.9-3.49,6.3-6.29-1.05,3.14-3.15,5.24-5.25,7.33,2.1-2.1,4.2-4.19,6.3-6.29-.71.71-.95,1.9-1.58,2.93,2.64-2.81,4.91-5.92,6.12-9.56-.06.62-.18,1.19-.34,1.75.44-1,.97-1.97,1.39-2.8v1.4c1.4-3.49,1.4-6.98,2.8-10.48,0,.7,0,1.4-.35,1.75.7,0,0-1.4.7-1.4v1.4c.54-1.09.25-2.17.42-3.26-.06-.31-.03-.62.28-.93-.16.31-.23.62-.28.93.07.39.28.78.28,1.17.7-.7-.7-1.4.35-1.75,0,1.4,0,2.79-.35,3.84.41-.41.6-.82.67-1.23-.02-.62-.1-1.25-.32-1.92.21.64.42,1.28.32,1.92.06,2.29-.94,4.34-.67,6.82.31-3.4,1.44-7.07,1.45-10.53-.25-.46-.05-.8-.05-1.34.04.44.05.89.05,1.34.03.05.09.11.13.17,0-.1.08-.06.26.14l.26-.26v.58c.11.14.2.26.35.46,0,.7.35,1.75.7,2.1,0-1.4-.35-2.44-.35-3.84.39,1.17.76,2.56.97,3.99-.3-6.62-1.57-13.28-5.17-18.66.35.35,0,.7,0,.7-.7-.7-2.1-1.4-2.45-2.44-.04-.43-.06-.76-.07-1.01-2.08-2.79-3.81-5.5-6.93-7.37,4.9,2.1,7.35,6.64,10.5,10.48-1.38-5.52-6.52-7.98-9.68-11.74-.53-.27-1.14-.51-.47-1.18,1.05-.35,1.4,1.4,2.45,1.75.7,0,.35-.35,0-.7,1.75,1.05,3.85,1.75,5.25,3.84,0-1.4-1.4-2.09-2.1-2.79,2.1,1.4,3.5,2.79,4.55,5.24-.47-.47-.78-.8-1.05-1.28.75,1.66,1.84,2.97,2.44,4.77-.35-.35-.7-.7-1.05-1.05,1.4,3.49,2.8,6.29,4.55,9.43,0-.24,0-.47-.02-.7-.11-.35-.21-.69-.33-1.05.23.23.3.62.33,1.05,1.22,3.79,2.12,7.34,2.12,11.18.21-.63.39-1.28.37-1.99-.05-.23-.09-.46-.15-.7.04.07.08.14.12.21-.05-.25-.15-.52-.27-.79,0,.01,0,.02,0,.04-.03-.09-.04-.16-.07-.25.04.08.04.14.08.22.01-.18.08-.37.27-.57.43.72.62,1.43.7,2.12v-.73c.26,1.29.32,2.39.2,3.58.01.06.02.11.03.17-.01-.04-.02-.08-.03-.13-.04.41-.11.83-.2,1.27.27-.26.32-.53.3-.79.02.09.04.19.05.28.04-1.45.11-2.91.35-4.38.08.23.15.47.22.7-.29-1.49-.8-2.94-.57-4.54l.35.35c-.58-1.15-.7-2.77-1.11-4.09.02.08.05.16.06.25-.19-.19-.18-.38-.18-.57-.06-.16-.1-.33-.17-.48.09.09.13.17.15.26-.37-1.39-.91-2.63-1.2-4.1v.7c-1.75-3.14-3.85-6.64-6.3-9.78l.7.7c-3.5-4.19-7.7-6.98-12.24-10.13,2.1,1.4,4.9,2.09,7,3.49-.33-.33-.97-.97-1.33-1.33-.83-.38-1.61-.81-1.82-1.81h.7c-3.15-1.05-6.3-3.49-10.15-3.14l.35.35c-3.85-.35-8.05-.35-11.89,0,1.75-.35,3.5-.7,4.9-.7-.7-.7-1.4,0-2.1,0,2.8-1.4,5.6-.7,8.4-.7-.72-.72-1.78-.77-2.82-.74,1.53-.07,2.95-.15,4.57.39-.16-.16-.32-.31-.48-.41-.19.02-.37.03-.57.06.19-.19.38-.17.57-.06,6.32-.65,10.45,4.63,16.22,5.64-1.81-2.03-3.88-3.56-6.12-4.77-5.96-2.4-12.62-2.81-19.16-3.78,1.56-.13,3.01-.27,4.43-.33-.26-.04-.53-.1-.84-.2.42.05.84.12,1.26.18.2,0,.41.01.61,0,.29-.04.58-.08.92-.19-.7,0-1.4,0-2.45-.35,1.73.19,3.46.38,5.19.58-.22-.18-.44-.33-.67-.48-1.27-.23-2.54-.42-3.79-.58-.06.02-.12.03-.17.06.17.03.33.04.5.08h-.7c.06-.03.13-.05.2-.08-.79-.14-1.57-.18-2.35-.17-.9.11-1.81.21-2.72.22-.24.04-.49.08-.73.12l.34.45c-2.24.03-4.67,1-6.92,1.03.4-.23.81-.44,1.23-.62-.65.07-1.31.11-1.99.11,2.45-1.36,5.54-1.25,8.27-2.29-5.86,1-11.61,1.76-16.77,4.33,4.82-4.24,11.4-4.25,17.48-5.97-2.41.21-4.82.38-7.23.79,1.68-.88,3.39-1.41,5.12-1.73-4.09.08-8.03.9-11.6,2.35Zm-6,4.07s.02-.01.03-.02c.21-.13-.14.22-.03.02Zm33.39,48.73c.06-.39.04-.84.13-1.27.04.46-.02.88-.13,1.27Zm1.48,6.65c.35-.35.35-1.05.96-1.44.34-.81.62-1.38.81-1.56q.33-.49.68-.84c-.7,1.4-1.4,2.79-2.45,3.84Zm2.78-7.81c-.28.2-.38.68-.48,1.15.1-.47.29-1.42.61-1.94,0,.19-.05.47-.13.79Zm8.06-11.4c-.06-.18-.08-.36-.11-.54,0,.03,0,.05,0,.08,0-.07-.02-.15-.02-.23,0-.04-.02-.08-.02-.12-.06-.13-.11-.23-.02-.21,0,.04,0,.08.01.12-.05-.76.04-1.54-.26-2.42t0,0c.06-.52.06-1.21-.29-2.26.35,1.75,2.1,3.49.7,5.59Zm-7.5,2.63s0,.02,0,.03c-.19.2-.1-.27,0-.03Zm-1.41-2.71c.1.44.2.88.29,1.33-.05.91-.84-.73-1.03.22.1-.47.82-1.31-.15-2.01.54.11.44.59.89.46Zm-2.14.99s.02.09.03.13c-.24.09-.14-.38-.03-.13Zm-9.53-.65c0,.08,0,.15,0,.22-.08.17.02-.31,0-.22Zm-3.46-30.45s.43.1.7.13c.24.03.94.03.94.03-.7,0-1.05.35-1.64-.16Zm-2.12-2.04c1.32.45,2.71-.25,3.76.8-1.4-.7-3.15.35-4.64-.54.31-.09.59-.18.87-.26Zm1.49-2.12c.52-.22.87-.57,1.22-.22,0,.7-1.4,0-1.41.37-.12-.06-.02-.11.18-.15Zm-4.49-.46s0,0,0,0c.11.24-.24-.11,0,0Zm-8.63,41.21s.05-.01.08-.02c.2.14-.34.03-.08.02Zm-3.77-1c-.05-.19.16-.25.65-.15.37-.34,1.54-.59.72.72-.44-.58-1.8.61-1.37-.56Z"/>
            <path class="cls-5" d="m88.21,89.22c2.1-1.4,2.8-4.19,4.2-6.29l-.7.7c.04-.19.11-.37.16-.55-.96,2.16-2.46,3.99-3.66,6.14Z"/>
            <path class="cls-5" d="m98.22,64.43c0,.05.02.1.03.15,0-.08,0-.16-.04-.24,0,.03,0,.06,0,.09Z"/>
            <path class="cls-5" d="m105.35,66.55v2.07s0,.04.02.07c.03-.66.07-1.38-.02-2.14Z"/>
            <path class="cls-5" d="m81.02,74.92c-.51,1.17-1.08,2.31-1.64,3.4.61-1.08,1.31-2.17,1.64-3.4Z"/>
            <path class="cls-5" d="m67.93,91.86c-.2.06-.4.12-.61.18.18-.02.37-.04.53-.06.02-.04.06-.07.07-.12Z"/>
            <path class="cls-5" d="m74.33,88.32c-.63,0-.82.35-1.34.65.52-.11.95-.35,1.34-.65Z"/>
            <path class="cls-5" d="m49.34,67.76c-.05-.03-.09-.07-.14-.1-.13,0-.24-.05-.39-.01l.54.11Z"/>
            <path class="cls-5" d="m99.41,66.87c-.09-.09-.12-.16-.17-.23.02.26.52,1.28.52,1.28v-.81c-.1-.14-.19-.25-.26-.32l-.09.09Z"/>
            <path class="cls-5" d="m87.66,39.77c.21.2.27.26.55.55,0-.25-.26-.4-.55-.55Z"/>
            <path class="cls-5" d="m98.2,64.22s0,.06,0,.09c0,0,0,.02,0,.03,0-.04,0-.08-.01-.12Z"/>
            <path class="cls-5" d="m105.37,68.68s0,.04,0,.06c.03.23.11.47.18.7,0-.02,0-.03,0-.05-.05-.24-.11-.48-.18-.72Z"/>
            <path class="cls-5" d="m84.37,84.83c-.42.44-.82.9-1.3,1.31.49-.28,1.03-.84,1.3-1.31Z"/>
            <path class="cls-5" d="m86.2,89.93c.16-.19.31-.38.43-.58-.33.35-.67.7-1.01,1.04.19-.15.38-.31.58-.46Z"/>
            <path class="cls-5" d="m101.43,69.81c.05,1.12.08,2.24.08,3.35.15-1.08.08-2.22-.08-3.35Z"/>
            <path class="cls-5" d="m93.74,48.39c.25.34.5.67.77,1.01,0,0-.82-3.01-.77-1.01Z"/>
            <path class="cls-5" d="m67.61,93.08c-.17.03-.32.07-.5.08.22.05.36-.01.5-.08Z"/>
            <path class="cls-5" d="m81.8,86.86c1.15-.39,1.47-1.16,1.73-1.88-.68.52-1.23,1.31-1.73,1.88Z"/>
            <path class="cls-5" d="m66.76,92.11c.07.02.14.03.22.04.12-.04.23-.07.35-.11-.19.02-.36.05-.56.07Z"/>
            <path class="cls-5" d="m83.11,83.18c-.17.13-.32.3-.48.44-.02.03-.04.07-.06.1.2-.16.48-.21.54-.54Z"/>
          </g>
          <g>
            <path class="cls-2" d="m63.05,91.96c-4.99,0-8.71-1.43-11.15-4.31-2.44-2.87-3.66-6.88-3.66-12.03v-1.62h5.85v1.34c.05,3.8.77,6.69,2.14,8.66,1.38,1.97,3.65,2.95,6.83,2.95s5.61-1.11,7.22-3.32,2.42-5.8,2.42-10.76c0-9.28-3.3-14.02-9.89-14.24-.05,0-.34,0-.84-.02-.51-.01-.79-.02-.84-.02v-5.71h1.6c3.58-.05,6.13-1.08,7.67-3.07,1.53-2,2.3-5.25,2.3-9.75,0-3.75-.69-6.65-2.06-8.72s-3.7-3.09-6.99-3.09-5.75.94-7.25,2.81c-1.5,1.87-2.27,4.82-2.32,8.84v1.13h-5.85v-1.54c0-5.15,1.24-9.14,3.72-11.95,2.48-2.82,6.38-4.23,11.69-4.23,5.02,0,8.8,1.51,11.35,4.53,2.55,3.02,3.82,7.11,3.82,12.26,0,4.53-.86,8.11-2.58,10.74-1.72,2.63-4.02,4.28-6.9,4.95,2.72.76,4.98,2.53,6.79,5.34,1.8,2.8,2.7,6.69,2.7,11.65,0,5.99-1.27,10.68-3.82,14.08-2.55,3.4-6.53,5.1-11.95,5.1Z"/>
            <path class="cls-3" d="m67.28,88.54c-5.22,0-9.19-1.55-11.78-4.6-2.57-3.01-3.87-7.25-3.87-12.58v-1.62c0-.47.38-.85.84-.85h5.85c.46,0,.84.38.84.85v1.34c.05,3.6.72,6.35,1.99,8.17,1.22,1.75,3.23,2.6,6.14,2.6s5.09-.97,6.55-2.97c1.5-2.05,2.26-5.5,2.26-10.26,0-8.81-2.97-13.19-9.08-13.39-.06,0-.32,0-.84-.02l-.82-.02c-.46,0-.84-.38-.84-.85v-5.71c0-.47.38-.85.84-.85h1.6c3.28-.05,5.64-.97,7-2.75,1.41-1.84,2.13-4.94,2.13-9.23,0-3.56-.65-6.33-1.92-8.24-1.22-1.83-3.28-2.72-6.29-2.72s-5.27.84-6.59,2.5c-1.37,1.71-2.09,4.51-2.14,8.32v1.12c0,.47-.38.85-.84.85h-5.85c-.46,0-.84-.38-.84-.85v-1.54c0-5.34,1.32-9.55,3.94-12.52,2.64-2.99,6.78-4.51,12.31-4.51,5.25,0,9.28,1.62,11.99,4.83,2.67,3.17,4.02,7.47,4.02,12.81,0,4.68-.92,8.45-2.72,11.21-1.37,2.08-3.09,3.61-5.16,4.55,1.95,1.03,3.64,2.64,5.04,4.82,1.88,2.93,2.84,7.01,2.84,12.11,0,6.15-1.34,11.05-3.99,14.59-2.7,3.61-6.95,5.43-12.62,5.43Zm-13.97-17.96v.77c0,4.92,1.16,8.78,3.46,11.48,2.26,2.66,5.8,4.01,10.51,4.01,5.11,0,8.91-1.6,11.28-4.76,2.42-3.23,3.65-7.8,3.65-13.56,0-4.77-.86-8.54-2.57-11.19-1.7-2.65-3.76-4.28-6.3-4.99-.37-.1-.62-.45-.62-.83,0-.39.28-.72.65-.81,2.69-.63,4.78-2.13,6.39-4.6,1.62-2.47,2.44-5.93,2.44-10.27,0-4.92-1.22-8.86-3.62-11.71-2.37-2.81-5.97-4.23-10.71-4.23-5.04,0-8.76,1.33-11.06,3.94-2.33,2.64-3.51,6.48-3.51,11.39v.69h4.17v-.29c.06-4.27.88-7.33,2.51-9.37,1.65-2.08,4.31-3.13,7.9-3.13s6.15,1.17,7.68,3.47c1.46,2.2,2.21,5.29,2.21,9.19,0,4.74-.81,8.1-2.48,10.27-1.69,2.2-4.49,3.34-8.32,3.4h-.77v4.03s.02,0,.02,0c.49.01.77.02.82.02,7.13.23,10.73,5.31,10.73,15.09,0,5.2-.85,8.88-2.59,11.26-1.78,2.43-4.43,3.66-7.9,3.66s-5.98-1.11-7.51-3.31c-1.47-2.1-2.24-5.17-2.29-9.13v-.5h-4.17Z"/>
          </g>
          <rect class="cls-1" x="28.89" y="93.03" width="76.37" height="16.13"/>
          <g>
            <path class="cls-3" d="m42.26,103.8v-6.18h2.77c.83,0,1.38.15,1.67.44s.43.85.43,1.69-.14,1.38-.41,1.65c-.28.27-.83.41-1.67.41h-.27s-1.37,0-1.37,0v2h-1.16Zm1.16-2.98h1.32c.53,0,.86-.06,1-.18.14-.12.21-.41.21-.87,0-.52-.06-.85-.18-.97-.12-.13-.42-.19-.92-.19h-1.44v2.21Z"/>
            <path class="cls-3" d="m47.87,99.48h1.03l-.06.61h.02c.25-.45.63-.67,1.16-.67.75,0,1.13.48,1.13,1.44v.3h-.97c.01-.12.02-.19.02-.23,0-.46-.18-.69-.53-.69-.51,0-.76.34-.76,1.03v2.55h-1.03v-4.33Z"/>
            <path class="cls-3" d="m53.59,99.43c.83,0,1.37.13,1.63.4s.38.83.38,1.69c0,.96-.12,1.59-.38,1.89-.25.3-.78.45-1.59.45-.88,0-1.44-.14-1.7-.42-.26-.28-.39-.89-.39-1.83s.13-1.5.38-1.77c.25-.27.81-.41,1.66-.41Zm0,.82c-.43,0-.7.08-.82.23-.12.16-.17.52-.17,1.09,0,.65.05,1.06.17,1.22.11.16.39.24.83.24s.7-.09.81-.26.17-.59.17-1.24c0-.55-.06-.91-.17-1.06s-.38-.23-.81-.23Z"/>
            <path class="cls-3" d="m59.19,102.15h1.02v.15l-.06.66c-.12.6-.74.9-1.84.9-.81,0-1.34-.15-1.61-.44-.27-.29-.4-.89-.4-1.78s.13-1.45.4-1.76.78-.45,1.55-.45,1.24.11,1.5.33.39.63.39,1.25h-1.02c0-.5-.29-.76-.87-.76-.41,0-.67.08-.77.24-.1.16-.16.55-.16,1.18s.06.98.17,1.14c.12.16.4.23.84.23.35,0,.58-.05.68-.16.1-.11.15-.35.15-.72Z"/>
            <path class="cls-3" d="m63.72,102.42h1.03v.17c0,.84-.63,1.27-1.88,1.27-.85,0-1.41-.15-1.67-.44s-.39-.91-.39-1.86c0-.84.14-1.41.41-1.7.27-.29.81-.43,1.61-.43s1.28.14,1.54.42.39.84.39,1.66v.32h-2.9c0,.1,0,.16,0,.19,0,.43.06.71.19.85.13.14.39.21.78.21s.62-.04.73-.12c.11-.08.17-.26.17-.54Zm0-1.23v-.17c0-.34-.06-.57-.18-.67s-.37-.15-.77-.15-.63.06-.75.19c-.12.12-.17.39-.17.81h1.87Z"/>
            <path class="cls-3" d="m69.18,100.67h-1s-.01-.06-.01-.08c-.02-.21-.08-.34-.18-.39-.1-.05-.33-.08-.71-.08-.54,0-.8.17-.8.52,0,.24.05.38.14.43.09.05.41.08.96.11.73.04,1.21.13,1.43.29.22.16.33.49.33.98,0,.53-.15.89-.44,1.1-.29.2-.82.31-1.58.31s-1.23-.09-1.5-.28-.4-.53-.4-1.03v-.11h1.07c-.01.06-.02.11-.03.15-.04.38.25.57.88.57s.97-.19.97-.57-.2-.55-.61-.55c-.92,0-1.52-.09-1.81-.26-.29-.18-.44-.54-.44-1.09,0-.5.13-.83.4-1s.78-.26,1.53-.26c.71,0,1.19.08,1.44.25.25.17.37.5.37.99Z"/>
            <path class="cls-3" d="m73.72,100.67h-1s-.01-.06-.01-.08c-.02-.21-.08-.34-.18-.39-.1-.05-.33-.08-.71-.08-.54,0-.8.17-.8.52,0,.24.05.38.14.43.09.05.41.08.96.11.73.04,1.21.13,1.43.29.22.16.33.49.33.98,0,.53-.15.89-.44,1.1-.29.2-.82.31-1.58.31s-1.23-.09-1.5-.28-.4-.53-.4-1.03v-.11h1.07c-.01.06-.02.11-.03.15-.04.38.25.57.88.57s.97-.19.97-.57-.2-.55-.61-.55c-.92,0-1.52-.09-1.81-.26-.29-.18-.44-.54-.44-1.09,0-.5.13-.83.4-1s.78-.26,1.53-.26c.71,0,1.19.08,1.44.25.25.17.37.5.37.99Z"/>
            <path class="cls-3" d="m82.68,97.63v6.18h-1.97l-1.75-3.39c-.09-.17-.22-.46-.41-.89l-.2-.44-.19-.44h-.04l.02.41v.4s.02.81.02.81v3.54h-1.16v-6.18h1.97l1.59,3.13c.14.28.3.61.49,1.01l.23.5.23.51h.04v-.4s-.03-.4-.03-.4v-.8s0-3.56,0-3.56h1.16Z"/>
            <path class="cls-3" d="m84.95,97.58c.36,0,.67.13.93.38.26.26.39.57.39.93s-.13.67-.39.93c-.26.26-.57.39-.93.39s-.67-.13-.93-.39c-.26-.26-.39-.57-.39-.93s.13-.68.39-.93c.26-.26.57-.38.94-.38Zm0,.57c-.51,0-.77.25-.77.75s.26.75.77.75.77-.25.77-.75-.26-.75-.77-.75Z"/>
            <path class="cls-3" d="m89.04,101.1v-.91h.2c.65,0,1.05-.03,1.19-.11.14-.08.21-.3.21-.67,0-.41-.06-.66-.19-.75-.13-.09-.46-.14-1.01-.14-.49,0-.8.05-.93.16-.13.1-.19.36-.19.76v.18h-1.12v-.23c0-.72.15-1.2.45-1.45.3-.24.9-.36,1.79-.36s1.51.11,1.84.34c.33.23.5.65.5,1.27,0,.85-.34,1.33-1.02,1.44v.03c.74.08,1.11.53,1.11,1.35,0,.73-.16,1.22-.49,1.47-.33.25-.96.38-1.9.38s-1.55-.12-1.89-.38-.5-.72-.5-1.42v-.34h1.14c0,.14.01.22.01.24,0,.43.07.69.21.8.14.11.5.16,1.07.16.52,0,.85-.06.99-.17s.21-.39.21-.82c0-.33-.06-.55-.19-.66-.13-.11-.39-.16-.79-.16h-.71Z"/>
          </g>
        </g>
      </g>
    </g>
  </g>
</svg>