<?xml version="1.0" encoding="UTF-8"?>
<svg id="Layer_2" data-name="Layer 2" xmlns="http://www.w3.org/2000/svg" viewBox="0 0 184.34 60.99">
  <defs>
    <style>
      .cls-1 {
        fill: #fe0303;
      }

      .cls-1, .cls-2, .cls-3 {
        stroke-width: 0px;
      }

      .cls-2 {
        fill: none;
      }

      .cls-3 {
        fill: #fff;
      }
    </style>
  </defs>
  <g id="Layer_1-2" data-name="Layer 1">
    <g>
      <g>
        <path class="cls-1" d="m9.62,53.21h-2.15c-.01-.1-.02-.17-.02-.22-.05-.61-.2-.99-.43-1.15s-.8-.23-1.68-.23c-1.04,0-1.72.09-2.04.27-.32.18-.48.56-.48,1.14,0,.68.13,1.09.39,1.23s1.12.24,2.58.32c1.73.09,2.84.32,3.35.69.51.37.76,1.14.76,2.31,0,1.44-.3,2.37-.89,2.79-.59.42-1.9.63-3.93.63-1.82,0-3.03-.21-3.63-.62-.6-.41-.9-1.25-.9-2.51v-.4s2.13,0,2.13,0v.23c0,.76.15,1.22.43,1.39.28.17,1.06.25,2.32.25.98,0,1.61-.1,1.88-.29.27-.2.41-.65.41-1.36,0-.52-.1-.87-.31-1.04-.21-.17-.65-.28-1.34-.31l-1.21-.07c-1.83-.1-3.01-.34-3.51-.72-.51-.38-.76-1.18-.76-2.42s.31-2.11.92-2.53c.61-.42,1.84-.63,3.68-.63,1.74,0,2.92.19,3.52.58.61.39.91,1.14.91,2.27v.41Z"/>
        <path class="cls-1" d="m13.4,51.78v2.8h5.43v1.52h-5.43v3.07h5.78v1.73h-7.98v-10.85h7.93v1.73h-5.73Z"/>
        <path class="cls-1" d="m20.81,60.9v-10.85h5.71c1.42,0,2.4.23,2.94.69s.81,1.29.81,2.5c0,1.1-.13,1.85-.4,2.25-.27.4-.82.68-1.65.83v.07c1.28.07,1.93.78,1.93,2.11v2.39h-2.2v-1.98c0-1.12-.59-1.68-1.77-1.68h-3.17v3.66h-2.2Zm2.2-5.39h3.16c.75,0,1.25-.13,1.5-.38.25-.25.37-.76.37-1.51s-.11-1.27-.32-1.5c-.21-.23-.68-.34-1.4-.34h-3.31v3.73Z"/>
        <path class="cls-1" d="m39.44,50.05h2.33l-3.74,10.85h-3.38l-3.7-10.85h2.28l2.17,6.14c.2.59.51,1.57.91,2.96h.06l.22-.74c.27-.92.5-1.66.7-2.21l2.15-6.15Z"/>
        <path class="cls-1" d="m44.92,50.05v10.85h-2.2v-10.85h2.2Z"/>
        <path class="cls-1" d="m54.13,57.02h2.21v.37c0,1.51-.29,2.49-.88,2.93-.59.44-1.89.66-3.91.66-2.29,0-3.69-.35-4.22-1.05-.53-.7-.79-2.57-.79-5.61,0-1.79.36-2.97,1.07-3.53.71-.56,2.2-.85,4.47-.85,1.65,0,2.76.23,3.31.7s.83,1.38.83,2.76v.25s-2.2,0-2.2,0v-.28c0-.71-.14-1.17-.43-1.36-.29-.2-.94-.3-1.96-.3-1.36,0-2.18.16-2.46.47s-.41,1.24-.41,2.78c0,2.08.12,3.31.37,3.69.25.38,1.04.57,2.39.57,1.09,0,1.8-.11,2.13-.32.33-.21.49-.68.49-1.4l-.02-.49Z"/>
        <path class="cls-1" d="m59.7,51.78v2.8h5.43v1.52h-5.43v3.07h5.78v1.73h-7.98v-10.85h7.93v1.73h-5.73Z"/>
        <path class="cls-1" d="m75.71,53.21h-2.15c-.01-.1-.02-.17-.02-.22-.05-.61-.2-.99-.43-1.15s-.8-.23-1.68-.23c-1.04,0-1.72.09-2.04.27-.32.18-.48.56-.48,1.14,0,.68.13,1.09.39,1.23s1.12.24,2.58.32c1.73.09,2.84.32,3.35.69.51.37.76,1.14.76,2.31,0,1.44-.3,2.37-.89,2.79-.59.42-1.9.63-3.93.63-1.82,0-3.03-.21-3.63-.62-.6-.41-.9-1.25-.9-2.51v-.4s2.13,0,2.13,0v.23c0,.76.15,1.22.43,1.39.28.17,1.06.25,2.32.25.98,0,1.61-.1,1.88-.29.27-.2.41-.65.41-1.36,0-.52-.1-.87-.31-1.04-.21-.17-.65-.28-1.34-.31l-1.21-.07c-1.83-.1-3.01-.34-3.51-.72-.51-.38-.76-1.18-.76-2.42s.31-2.11.92-2.53c.61-.42,1.84-.63,3.68-.63,1.74,0,2.92.19,3.52.58.61.39.91,1.14.91,2.27v.41Z"/>
        <path class="cls-1" d="m84.07,50.05v10.85h-2.2v-10.85h2.2Z"/>
        <path class="cls-1" d="m96.88,50.05v10.85h-3.73l-3.31-5.95c-.16-.3-.42-.82-.77-1.56l-.37-.78-.36-.78h-.08l.03.71.03.71.02,1.42v6.22h-2.2v-10.85h3.73l3.01,5.5c.27.49.57,1.08.93,1.77l.44.88.44.89h.08l-.03-.7-.03-.7-.02-1.4v-6.25h2.2Z"/>
        <path class="cls-1" d="m98.91,60.9v-10.85h5.7c1.62,0,2.75.33,3.4.99.65.66.97,1.82.97,3.48,0,2.71-.26,4.45-.78,5.22-.52.77-1.7,1.16-3.52,1.16h-5.76Zm2.2-1.73h3.13c1.05,0,1.73-.23,2.04-.68s.46-1.45.46-3-.14-2.62-.42-3.05-.93-.65-1.95-.65h-3.27v7.38Z"/>
        <path class="cls-1" d="m118.04,50.05h2.2v7.22c0,1.51-.31,2.51-.93,3s-1.89.73-3.8.73c-2.02,0-3.34-.23-3.97-.69-.63-.46-.94-1.43-.94-2.92v-7.34h2.2v7.34c0,.8.15,1.31.46,1.52s1.02.32,2.16.32,1.89-.11,2.19-.33c.3-.22.45-.75.45-1.6v-7.26Z"/>
        <path class="cls-1" d="m130.87,53.21h-2.15c-.01-.1-.02-.17-.02-.22-.05-.61-.2-.99-.43-1.15s-.8-.23-1.68-.23c-1.04,0-1.72.09-2.04.27-.32.18-.48.56-.48,1.14,0,.68.13,1.09.39,1.23.26.14,1.12.24,2.58.32,1.73.09,2.84.32,3.35.69.51.37.76,1.14.76,2.31,0,1.44-.3,2.37-.89,2.79-.59.42-1.9.63-3.93.63-1.82,0-3.03-.21-3.63-.62-.6-.41-.9-1.25-.9-2.51v-.4s2.13,0,2.13,0v.23c0,.76.15,1.22.43,1.39.28.17,1.06.25,2.32.25.99,0,1.61-.1,1.88-.29.27-.2.41-.65.41-1.36,0-.52-.1-.87-.31-1.04-.21-.17-.65-.28-1.34-.31l-1.21-.07c-1.83-.1-3-.34-3.51-.72-.51-.38-.76-1.18-.76-2.42s.31-2.11.92-2.53,1.84-.63,3.68-.63c1.74,0,2.92.19,3.52.58s.91,1.14.91,2.27v.41Z"/>
        <path class="cls-1" d="m137.29,51.89v9h-2.2v-9h-3.34v-1.84h9.01v1.84h-3.46Z"/>
        <path class="cls-1" d="m141.87,60.9v-10.85h5.71c1.42,0,2.4.23,2.94.69.54.46.81,1.29.81,2.5,0,1.1-.13,1.85-.4,2.25-.27.4-.82.68-1.65.83v.07c1.29.07,1.93.78,1.93,2.11v2.39h-2.2v-1.98c0-1.12-.59-1.68-1.77-1.68h-3.17v3.66h-2.2Zm2.2-5.39h3.16c.75,0,1.25-.13,1.5-.38.25-.25.37-.76.37-1.51s-.11-1.27-.32-1.5c-.21-.23-.68-.34-1.4-.34h-3.31v3.73Z"/>
        <path class="cls-1" d="m155.27,50.05v10.85h-2.2v-10.85h2.2Z"/>
        <path class="cls-1" d="m159.3,51.78v2.8h5.43v1.52h-5.43v3.07h5.78v1.73h-7.98v-10.85h7.93v1.73h-5.73Z"/>
        <path class="cls-1" d="m168.92,50.05v9h5.43v1.84h-7.63v-10.85h2.2Z"/>
        <path class="cls-1" d="m184.06,53.21h-2.15c-.01-.1-.02-.17-.02-.22-.05-.61-.2-.99-.43-1.15s-.8-.23-1.68-.23c-1.04,0-1.72.09-2.04.27-.32.18-.48.56-.48,1.14,0,.68.13,1.09.39,1.23.26.14,1.12.24,2.58.32,1.73.09,2.84.32,3.35.69.51.37.76,1.14.76,2.31,0,1.44-.3,2.37-.89,2.79-.59.42-1.9.63-3.93.63-1.82,0-3.03-.21-3.63-.62-.6-.41-.9-1.25-.9-2.51v-.4s2.13,0,2.13,0v.23c0,.76.15,1.22.43,1.39.28.17,1.06.25,2.32.25.99,0,1.61-.1,1.88-.29.27-.2.41-.65.41-1.36,0-.52-.1-.87-.31-1.04-.21-.17-.65-.28-1.34-.31l-1.21-.07c-1.83-.1-3-.34-3.51-.72-.51-.38-.76-1.18-.76-2.42s.31-2.11.92-2.53,1.84-.63,3.68-.63c1.74,0,2.92.19,3.52.58s.91,1.14.91,2.27v.41Z"/>
      </g>
      <path class="cls-3" d="m22.42,1.64C15.16.57,7.67.79,0,.9v8.83c6.1,0,11.57.07,17.05-.02,4.56-.07,7.53,2.26,9.47,6.09,2.86,5.65,1.49,12.66-3.23,16.33-2.11,1.64-6.42,2.66-10.35,2.66h0c-4.22-.1-8.5-.01-12.83.05v7.95c2.29,0,4.49.01,6.63.01,2.43,0,4.79.02,7.13,0h3.27c9.18-.02,15.1-4.12,18.2-12.61,4.48-12.26-1.74-26.9-12.92-28.55Z"/>
      <path class="cls-3" d="m93.19,1.32h21.06c.12,2.54.25,5.08.4,8.24h-13.07v33.26h-8.38V1.32Z"/>
      <path class="cls-3" d="m43.32,9.4V1.46h31.24v7.94h-31.24Z"/>
      <path class="cls-3" d="m43.22,42.34v-7.76h31.46v7.76h-31.46Z"/>
      <path class="cls-3" d="m151.37,1.51v7.85h-31.3V1.51h31.3Z"/>
      <path class="cls-3" d="m151.41,34.5v7.92h-31.19v-7.92h31.19Z"/>
      <path class="cls-3" d="m72.74,18.21v7.59h-29.25v-7.59h29.25Z"/>
      <path class="cls-3" d="m149.04,18.1v7.78h-28.97v-7.78h28.97Z"/>
      <path class="cls-3" d="m89.67,1.7v7.69h-9.75V1.7h9.75Z"/>
      <rect class="cls-1" x=".1" y="30.94" width="9.93" height="3.89"/>
      <path class="cls-1" d="m184.3,31.41c-9.71-.02-16.97-5.93-16.97-13.18s7.13-12.64,16.76-12.73V0c-13.85-.19-22.7,8.27-22.7,18.45s8.34,18.38,22.75,18.45h.19l-.03-5.49Z"/>
      <path class="cls-1" d="m183.67,38.95c-13.81-.09-23.18-7.31-24.13-16.62-.22-1.33-.25-2.75-.3-4.3l-4.79-.03c-.36,19.19,12.5,25.92,29.01,25.92h.25l-.04-4.97Z"/>
      <line class="cls-2" x1="153.44" y1="17.78" x2="158.25" y2="17.78"/>
    </g>
  </g>
</svg>