<?xml version="1.0" encoding="UTF-8"?>
<svg id="Layer_2" data-name="Layer 2" xmlns="http://www.w3.org/2000/svg" viewBox="0 0 184.33 43.92">
  <defs>
    <style>
      .cls-1 {
        fill: #fe0303;
      }

      .cls-1, .cls-2, .cls-3 {
        stroke-width: 0px;
      }

      .cls-3 {
        fill: none;
      }
    </style>
  </defs>
  <g id="Layer_1-2" data-name="Layer 1">
    <g>
      <path class="cls-2" d="m22.42,1.64C15.16.57,7.67.79,0,.9v8.83c6.1,0,11.57.07,17.05-.02,4.56-.07,7.53,2.26,9.47,6.09,2.86,5.65,1.49,12.66-3.23,16.33-2.11,1.64-6.42,2.66-10.35,2.66h0c-4.22-.1-8.5-.01-12.83.05v7.95c2.29,0,4.49.01,6.63.01,2.43,0,4.79.02,7.13,0h3.27c9.18-.02,15.1-4.12,18.2-12.61,4.48-12.26-1.74-26.9-12.92-28.55Z"/>
      <path class="cls-2" d="m93.19,1.32h21.06c.12,2.54.25,5.08.4,8.24h-13.07v33.26h-8.38V1.32Z"/>
      <path class="cls-2" d="m43.32,9.4V1.46h31.24v7.94h-31.24Z"/>
      <path class="cls-2" d="m43.22,42.34v-7.76h31.46v7.76h-31.46Z"/>
      <path class="cls-2" d="m151.37,1.51v7.85h-31.3V1.51h31.3Z"/>
      <path class="cls-2" d="m151.41,34.5v7.92h-31.19v-7.92h31.19Z"/>
      <path class="cls-2" d="m72.74,18.21v7.59h-29.25v-7.59h29.25Z"/>
      <path class="cls-2" d="m149.04,18.1v7.78h-28.97v-7.78h28.97Z"/>
      <path class="cls-2" d="m89.67,1.7v7.69h-9.75V1.7h9.75Z"/>
      <rect class="cls-1" x=".1" y="30.94" width="9.93" height="3.89"/>
      <path class="cls-1" d="m184.3,31.41c-9.71-.02-16.97-5.93-16.97-13.18s7.13-12.64,16.76-12.73V0c-13.85-.19-22.7,8.27-22.7,18.45s8.34,18.38,22.75,18.45h.19l-.03-5.49Z"/>
      <path class="cls-1" d="m183.67,38.95c-13.81-.09-23.18-7.31-24.13-16.62-.22-1.33-.25-2.75-.3-4.3l-4.79-.03c-.36,19.19,12.5,25.92,29.01,25.92h.25l-.04-4.97Z"/>
      <line class="cls-3" x1="153.44" y1="17.78" x2="158.25" y2="17.78"/>
    </g>
  </g>
</svg>